<svg aria-hidden="true" style="position: absolute; width: 0; height: 0; overflow: hidden;" version="1.1" xmlns="http://www.w3.org/2000/svg" xmlns:xlink="http://www.w3.org/1999/xlink">
<defs>
<symbol id="sausage" viewBox="0 0 32 32">
<path d="M8.201 3.237c-0.089 0.049-0.323 0.242-0.525 0.436-0.428 0.404-0.832 0.598-1.293 0.598-0.695 0-1.131 0.38-1.131 0.986 0 0.388 0.154 0.566 1.067 1.196s1.188 0.703 1.406 0.364c0.202-0.307 0.065-0.509-0.711-1.059l-0.671-0.469 0.501-0.105c0.614-0.121 0.897-0.267 1.333-0.655l0.323-0.291-0.057 0.768c-0.049 0.663-0.040 0.792 0.081 0.905 0.194 0.202 0.574 0.178 0.719-0.048 0.17-0.251 0.267-1.98 0.137-2.231-0.21-0.388-0.816-0.598-1.18-0.396z"></path>
<path d="M10.060 6.187c-0.897 0.186-2.004 0.832-2.546 1.479-1.043 1.245-1.398 3.031-0.889 4.477 0.469 1.366 2.659 4.833 3.128 4.946 0.259 0.065 0.469-0.024 0.574-0.242 0.105-0.226 0.032-0.372-0.453-1.018-0.186-0.242-0.339-0.469-0.339-0.501 0-0.024 0.388-0.259 0.873-0.509 0.889-0.469 1.067-0.614 1.067-0.865 0-0.194-0.283-0.469-0.485-0.469-0.081 0-0.558 0.218-1.043 0.485-0.493 0.267-0.929 0.485-0.97 0.485-0.129 0-1.374-2.223-1.293-2.295 0.016-0.016 0.388-0.194 0.816-0.396 0.832-0.388 0.994-0.574 0.8-0.938-0.17-0.307-0.428-0.291-1.188 0.065-0.388 0.186-0.711 0.331-0.727 0.331s-0.032-0.226-0.032-0.509c0-0.55 0.162-1.188 0.42-1.713 0.849-1.681 2.998-2.392 4.704-1.544 0.339 0.162 0.76 0.461 1.002 0.695 0.388 0.396 0.525 0.622 1.18 2.020 0.695 1.479 2.166 3.249 3.596 4.332 0.865 0.647 2.303 1.39 3.402 1.754 0.905 0.307 2.821 0.663 3.128 0.582 0.226-0.057 0.372-0.315 0.307-0.533-0.089-0.267-0.372-0.388-1.212-0.509-1.899-0.291-3.564-0.97-5.043-2.069-1.334-0.986-2.627-2.522-3.257-3.879-0.178-0.38-0.436-0.913-0.566-1.196-0.703-1.487-2.408-2.538-4.089-2.513-0.388 0.008-0.776 0.024-0.865 0.048z"></path>
<path d="M1.647 17.841c-0.283 0.17-0.404 0.436-0.477 1.051-0.065 0.566-0.202 0.824-0.614 1.156-0.541 0.436-0.687 0.873-0.436 1.358 0.226 0.436 0.493 0.509 1.649 0.445 0.655-0.040 1.083-0.097 1.204-0.17 0.226-0.145 0.234-0.517 0.016-0.719-0.145-0.129-0.259-0.137-1.010-0.089-0.469 0.032-0.849 0.032-0.849 0 0-0.024 0.089-0.121 0.194-0.202 0.323-0.251 0.687-0.873 0.744-1.277 0.089-0.63 0.137-0.63 0.525-0.032 0.388 0.606 0.525 0.744 0.744 0.752 0.186 0 0.461-0.283 0.461-0.493 0-0.267-1.010-1.762-1.261-1.851-0.315-0.121-0.614-0.097-0.889 0.073z"></path>
<path d="M29.408 17.808c-0.251 0.137-1.204 1.568-1.204 1.81 0 0.21 0.275 0.493 0.469 0.493 0.218 0 0.348-0.137 0.744-0.752 0.348-0.55 0.477-0.598 0.485-0.17 0 0.356 0.275 0.929 0.614 1.293 0.194 0.21 0.356 0.396 0.356 0.412s-0.364 0.008-0.808-0.024c-0.946-0.065-1.212 0.032-1.212 0.453 0 0.372 0.226 0.461 1.382 0.525s1.422-0.008 1.649-0.445c0.251-0.485 0.105-0.921-0.436-1.358-0.412-0.331-0.558-0.606-0.622-1.204-0.032-0.259-0.105-0.566-0.17-0.687-0.21-0.42-0.808-0.582-1.245-0.348z"></path>
<path d="M6.932 17.978c-2.101 0.509-3.604 2.578-3.419 4.72 0.145 1.721 1.059 3.031 2.675 3.855 4.227 2.158 9.472 2.837 14.313 1.835 1.794-0.364 3.362-0.897 5.027-1.705 0.938-0.453 1.164-0.598 1.641-1.075 1.94-1.94 1.746-5.075-0.42-6.805-1.358-1.083-3.33-1.269-4.89-0.453-1.414 0.735-1.746 0.881-2.441 1.107-1.18 0.38-2.085 0.517-3.459 0.517-1.342 0-2.117-0.113-3.354-0.509-0.703-0.218-1.091-0.396-2.465-1.115-0.267-0.137-0.703-0.307-0.97-0.38-0.582-0.145-1.616-0.145-2.239 0.008zM10.238 19.481c1.754 0.905 3.023 1.277 4.841 1.439 2.214 0.194 4.55-0.315 6.684-1.439 0.97-0.517 1.471-0.663 2.263-0.663 1.721 0 3.176 1.269 3.475 3.031 0.162 0.946-0.154 2.109-0.776 2.829l-0.267 0.307-0.404-0.719c-0.372-0.671-0.412-0.719-0.679-0.744-0.299-0.032-0.485 0.129-0.485 0.42 0 0.089 0.162 0.477 0.364 0.865s0.364 0.719 0.364 0.744c0 0.057-0.962 0.509-1.746 0.824l-0.655 0.267-0.428-0.946c-0.234-0.517-0.501-1.002-0.59-1.083-0.218-0.194-0.445-0.145-0.647 0.121l-0.162 0.218 0.412 0.929c0.234 0.517 0.42 0.97 0.42 1.010 0 0.17-2.336 0.719-2.425 0.574-0.032-0.057-0.137-0.461-0.242-0.913-0.097-0.453-0.234-0.905-0.291-1.010-0.218-0.339-0.84-0.17-0.84 0.234 0 0.081 0.089 0.541 0.202 1.018 0.113 0.469 0.194 0.873 0.178 0.889-0.057 0.049-1.374 0.186-1.851 0.186h-0.469v-0.873c0-0.735-0.024-0.897-0.137-1.002-0.251-0.21-0.412-0.226-0.622-0.057-0.202 0.162-0.21 0.194-0.21 1.051v0.881h-0.541c-0.525-0.008-1.713-0.129-1.778-0.186-0.016-0.016 0.073-0.436 0.194-0.938 0.259-1.107 0.226-1.325-0.234-1.366-0.388-0.032-0.485 0.121-0.719 1.172-0.097 0.453-0.202 0.865-0.234 0.921-0.049 0.065-0.251 0.049-0.816-0.081-1.083-0.251-1.608-0.412-1.608-0.501 0-0.040 0.186-0.493 0.412-1.002 0.396-0.889 0.412-0.938 0.283-1.123-0.162-0.251-0.42-0.331-0.622-0.194-0.089 0.057-0.356 0.525-0.59 1.034-0.509 1.107-0.428 1.083-1.746 0.517-1.285-0.55-1.22-0.445-0.776-1.293 0.202-0.404 0.372-0.792 0.372-0.873 0-0.291-0.162-0.453-0.436-0.453-0.315 0-0.331 0.024-0.735 0.768-0.17 0.307-0.331 0.598-0.364 0.63-0.089 0.097-0.533-0.501-0.776-1.034-0.711-1.56-0.251-3.378 1.123-4.38 0.679-0.501 1.317-0.679 2.295-0.655l0.824 0.024 1.196 0.622z"></path>
</symbol>
<symbol id="bread" viewBox="0 0 32 32">
<path d="M16.123 9.262c-0.729 0.134-1.441 0.51-2.097 1.113-0.15 0.138-0.279 0.223-0.336 0.223-0.053 0-0.211-0.081-0.356-0.182-0.834-0.591-1.652-0.871-2.559-0.871-1.122 0-1.988 0.381-3.158 1.389-0.498 0.425-0.47 0.409-1.109 0.632-2.984 1.032-5.17 2.782-6.094 4.871-0.397 0.895-0.53 2.122-0.3 2.782 0.19 0.555 1.134 1.413 1.972 1.802 1.053 0.486 3.433 1.057 5.502 1.316 3.223 0.409 8.899 0.547 12.782 0.308 7.11-0.437 11.029-1.725 11.572-3.806 0.077-0.304 0.077-0.652 0-1.069-0.417-2.186-2.235-3.964-4.96-4.847-0.389-0.126-0.79-0.255-0.891-0.292-0.142-0.049-0.32-0.198-0.79-0.652-0.713-0.696-1.186-1.061-1.729-1.344-0.717-0.368-1.389-0.458-1.952-0.259-0.328 0.113-0.518 0.235-0.879 0.555-0.158 0.138-0.304 0.235-0.356 0.235-0.061 0-0.332-0.198-0.745-0.551-0.895-0.745-1.482-1.089-2.207-1.275-0.348-0.089-1.024-0.13-1.312-0.077zM16.941 10.355c1.089 0.174 2.166 0.931 2.875 2.024 0.093 0.146 0.393 0.721 0.668 1.279 1.17 2.385 1.692 3.118 2.526 3.539 0.283 0.142 0.688 0.211 0.939 0.158 0.721-0.154 0.891-1.077 0.421-2.308-0.348-0.903-1.162-2.247-1.927-3.174-0.32-0.381-0.381-0.526-0.251-0.575 0.186-0.073 0.988 0.3 1.551 0.721 0.211 0.158 0.632 0.526 0.931 0.826 0.3 0.296 0.619 0.583 0.713 0.64 0.154 0.097 0.571 0.243 1.409 0.494 2.085 0.628 3.81 2.263 4.093 3.883 0.13 0.753 0.049 1.041-0.389 1.385-0.806 0.628-1.875 1.085-3.324 1.433-2.142 0.506-4.668 0.822-7.794 0.976-1.364 0.065-6.555 0.024-7.948-0.061-4.806-0.304-7.264-0.737-9.049-1.607-1.037-0.502-1.401-0.996-1.34-1.818 0.097-1.356 1.024-2.79 2.551-3.944 0.721-0.543 1.895-1.174 2.879-1.543 0.514-0.194 0.615-0.211 0.721-0.134 0.036 0.028 0.275 0.381 0.534 0.781 0.919 1.417 1.555 2.243 2.19 2.854 0.603 0.579 1.008 0.806 1.445 0.81 0.555 0 0.798-0.3 0.798-0.988 0-0.846-0.522-2.138-1.275-3.166-0.3-0.409-0.96-1.069-1.377-1.377-0.348-0.255-0.385-0.292-0.385-0.373 0-0.077 0.53-0.316 0.907-0.413 0.429-0.109 0.996-0.109 1.425 0 0.66 0.17 1.425 0.64 1.802 1.105 0.174 0.219 0.672 1.097 1.721 3.045 0.522 0.972 0.753 1.348 1.093 1.786 0.332 0.429 0.7 0.757 1.020 0.915 0.227 0.113 0.304 0.13 0.591 0.13 0.239 0 0.364-0.020 0.47-0.073 0.68-0.356 0.818-1.215 0.429-2.676-0.445-1.676-1.482-3.239-2.749-4.15-0.182-0.13-0.239-0.247-0.146-0.304 0.069-0.045 0.603-0.134 0.806-0.138 0.101 0 0.3 0.016 0.445 0.036zM15.139 11.611c0.696 0.34 1.324 1.061 1.854 2.126 0.478 0.951 0.875 2.482 0.721 2.769-0.061 0.109-0.202 0.109-0.344 0-0.154-0.121-0.547-0.615-0.802-1.008-0.413-0.636-2.239-4.025-2.203-4.081 0.040-0.069 0.445 0.032 0.773 0.194zM21.208 12.084c1.020 1.012 1.802 2.3 2.292 3.79 0.158 0.482 0.041 0.518-0.372 0.117-0.348-0.332-0.482-0.526-0.96-1.385-0.458-0.822-1.421-2.729-1.421-2.814 0-0.121 0.109-0.053 0.462 0.292zM8.604 12.113c1.211 0.733 2.012 1.818 2.409 3.255 0.101 0.368 0.101 0.453 0 0.453-0.069 0-0.899-0.984-1.474-1.753-0.538-0.717-1.385-1.98-1.385-2.073 0-0.105 0.138-0.069 0.449 0.117z"></path>
</symbol>
<symbol id="snowflake" viewBox="0 0 32 32">
<path d="M15.596 7.235c0 1.090-0.015 1.984-0.040 1.984-0.020 0-0.658-0.623-1.417-1.381s-1.406-1.381-1.437-1.381c-0.030 0-0.171 0.12-0.311 0.266l-0.251 0.271 3.456 3.456v2.396c0 1.321-0.015 2.401-0.030 2.401-0.035 0-1.16-0.633-2.356-1.336-0.412-0.241-0.97-0.558-1.231-0.708s-0.502-0.302-0.533-0.331c-0.030-0.035-0.181-0.537-0.337-1.115-0.156-0.583-0.437-1.623-0.618-2.311-0.186-0.693-0.347-1.266-0.351-1.271-0.030-0.040-0.738 0.166-0.759 0.221-0.010 0.025 0.14 0.648 0.337 1.381 0.608 2.25 0.653 2.426 0.633 2.446-0.010 0.010-0.347-0.166-0.744-0.397-0.392-0.226-0.894-0.513-1.11-0.633s-0.477-0.271-0.578-0.337c-0.251-0.156-1.005-0.583-1.035-0.583-0.010 0-0.111 0.156-0.221 0.347l-0.201 0.351 0.884 0.513c0.492 0.282 1.070 0.618 1.291 0.748s0.598 0.347 0.839 0.482c0.241 0.136 0.442 0.261 0.442 0.276 0 0.020-0.050 0.045-0.111 0.060-0.065 0.015-0.286 0.071-0.492 0.126s-1.020 0.276-1.808 0.482c-0.784 0.211-1.432 0.392-1.437 0.397-0.015 0.015 0.186 0.753 0.206 0.784 0.010 0.005 0.231-0.045 0.487-0.116s0.773-0.211 1.145-0.311c0.372-0.095 1.020-0.271 1.432-0.382 0.417-0.111 0.955-0.256 1.201-0.322l0.447-0.12 0.733 0.422c0.643 0.367 1.065 0.613 2.265 1.311 0.151 0.091 0.447 0.256 0.653 0.377 0.558 0.316 0.548 0.296 0.241 0.467-0.146 0.080-0.527 0.302-0.844 0.487s-1.13 0.658-1.808 1.045l-1.231 0.708-0.452-0.116c-0.246-0.065-1.306-0.347-2.356-0.628-1.045-0.282-1.904-0.507-1.914-0.497-0.025 0.025-0.221 0.769-0.206 0.779 0.005 0.010 0.874 0.246 1.929 0.527s1.919 0.522 1.919 0.537c0 0.015-0.437 0.276-0.97 0.583-0.527 0.302-1.155 0.663-1.391 0.804-0.236 0.146-0.578 0.342-0.764 0.442l-0.337 0.186 0.196 0.331c0.106 0.181 0.201 0.342 0.216 0.351 0.025 0.025 0.457-0.196 0.789-0.407 0.442-0.276 2.672-1.542 2.687-1.522 0.020 0.015-0.382 1.572-0.854 3.29-0.071 0.256-0.126 0.487-0.126 0.517 0 0.040 0.271 0.136 0.653 0.226 0.126 0.030 0.131 0.015 0.266-0.487 0.075-0.286 0.342-1.286 0.593-2.225 0.256-0.939 0.472-1.758 0.487-1.823 0.010-0.065 0.105-0.171 0.206-0.231 0.221-0.14 1.969-1.155 2.391-1.386 0.166-0.091 0.462-0.261 0.653-0.377 0.502-0.302 0.909-0.527 0.949-0.527 0.015 0 0.030 1.080 0.030 2.401v2.396l-3.466 3.466 0.261 0.261c0.146 0.146 0.286 0.266 0.316 0.266 0.025 0 0.673-0.623 1.432-1.381s1.397-1.381 1.417-1.381c0.025 0 0.040 0.894 0.040 1.984v1.984h0.804v-1.984c0-1.090 0.015-1.984 0.040-1.984 0.020 0 0.658 0.623 1.417 1.381s1.406 1.381 1.432 1.381c0.030 0 0.171-0.12 0.316-0.266l0.261-0.261-3.466-3.466v-2.406c0-2.25 0.005-2.401 0.085-2.371 0.050 0.020 0.673 0.377 1.386 0.794 0.713 0.412 1.482 0.854 1.708 0.979 0.698 0.382 0.955 0.537 0.995 0.618 0.040 0.071 0.266 0.889 0.955 3.466 0.171 0.648 0.316 1.186 0.322 1.195 0.025 0.035 0.748-0.181 0.764-0.226s-0.136-0.643-0.869-3.351c-0.065-0.251-0.111-0.457-0.1-0.467 0.020-0.020 0.909 0.457 1.015 0.542 0.030 0.025 0.211 0.131 0.402 0.236s0.427 0.241 0.522 0.296c0.095 0.055 0.392 0.226 0.653 0.377s0.558 0.326 0.653 0.387c0.095 0.055 0.191 0.105 0.211 0.105 0.035 0 0.392-0.623 0.392-0.688 0-0.020-0.14-0.12-0.311-0.216-0.728-0.412-0.894-0.507-1.346-0.769-0.261-0.156-0.764-0.447-1.115-0.648-0.357-0.201-0.643-0.382-0.643-0.402 0-0.015 0.12-0.055 0.266-0.091 0.14-0.035 0.487-0.126 0.764-0.206 0.276-0.075 1.020-0.276 1.653-0.447 0.638-0.166 1.16-0.311 1.166-0.316 0.015-0.015-0.186-0.753-0.206-0.779-0.010-0.010-0.397 0.085-0.864 0.211-2.492 0.673-3.521 0.949-3.677 0.984-0.181 0.045-0.412-0.075-3.22-1.713-0.347-0.201-0.738-0.427-0.874-0.502l-0.246-0.136 0.12-0.075c0.065-0.040 0.347-0.206 0.623-0.367s0.693-0.402 0.929-0.537c0.457-0.266 1.949-1.13 2.291-1.326l0.206-0.116 1.201 0.322c0.658 0.176 1.718 0.462 2.351 0.628 0.628 0.171 1.155 0.306 1.16 0.296 0.010-0.010 0.060-0.186 0.116-0.397l0.095-0.387-0.331-0.085c-0.457-0.126-2.602-0.703-3.104-0.839-0.231-0.060-0.417-0.126-0.417-0.14s0.095-0.080 0.216-0.14c0.116-0.060 0.437-0.241 0.713-0.407s0.949-0.553 1.492-0.869c0.548-0.311 0.995-0.588 0.995-0.608 0-0.025-0.080-0.191-0.181-0.367-0.136-0.246-0.201-0.322-0.266-0.296-0.040 0.015-0.407 0.226-0.809 0.462s-0.874 0.513-1.055 0.618c-1.21 0.698-1.512 0.864-1.532 0.844-0.015-0.015 0.040-0.271 0.12-0.573s0.306-1.145 0.502-1.879c0.196-0.728 0.357-1.346 0.357-1.361 0-0.035-0.296-0.136-0.653-0.221-0.126-0.030-0.131-0.015-0.271 0.513-0.206 0.784-0.437 1.632-0.799 2.979l-0.322 1.181-0.598 0.357c-0.331 0.196-0.859 0.507-1.175 0.683-0.316 0.181-0.959 0.548-1.426 0.814-0.462 0.271-0.879 0.502-0.914 0.517-0.060 0.020-0.071-0.351-0.071-2.366v-2.396l3.481-3.471-0.271-0.271c-0.146-0.151-0.291-0.271-0.322-0.271-0.025 0-0.673 0.623-1.432 1.381s-1.397 1.381-1.417 1.381c-0.025 0-0.040-0.894-0.040-1.984v-1.984h-0.804v1.984z"></path>
</symbol>
<symbol id="cake" viewBox="0 0 32 32">
<path d="M8.691 17.362v-2.658c0-1.063 0.93-1.993 1.993-1.993h10.631c1.063 0 1.993 0.93 1.993 1.993v2.658h-14.618zM10.020 16.698h11.96v-1.993c0-0.399-0.266-0.664-0.664-0.664h-10.631c-0.399 0-0.664 0.266-0.664 0.664v1.993z"></path>
<path d="M24.505 26h-17.010c-0.797 0-1.462-0.664-1.462-1.462v-4.518c0-1.861 1.462-3.322 3.322-3.322h13.289c1.861 0 3.322 1.462 3.322 3.322v4.518c0 0.797-0.664 1.462-1.462 1.462zM9.355 18.027c-1.063 0-1.993 0.93-1.993 1.993v4.518c0 0.133 0.133 0.133 0.133 0.133h16.877c0.133 0 0.133-0.133 0.133-0.133v-4.518c0-1.063-0.93-1.993-1.993-1.993h-13.156z"></path>
<path d="M15.336 13.376v-2.658c0-0.399 0.266-0.664 0.664-0.664s0.664 0.266 0.664 0.664v2.658h-1.329z"></path>
<path d="M19.322 13.376v-2.658c0-0.399 0.266-0.664 0.664-0.664s0.664 0.266 0.664 0.664v2.658h-1.329z"></path>
<path d="M11.349 13.376v-2.658c0-0.399 0.266-0.664 0.664-0.664s0.664 0.266 0.664 0.664v2.658h-1.329z"></path>
<path d="M16 7.395c-0.133 0-0.399 0-0.532-0.266-0.133-0.133-0.133-0.266-0.133-0.399s0-0.399 0.133-0.532c0.266-0.266 0.664-0.266 0.93 0 0.133 0.133 0.266 0.266 0.266 0.532 0 0.133 0 0.399-0.133 0.399-0.133 0.266-0.399 0.266-0.532 0.266z"></path>
<path d="M19.987 7.395c-0.133 0-0.399 0-0.532-0.266-0.133-0.133-0.133-0.266-0.133-0.399s0-0.399 0.133-0.532c0.266-0.266 0.664-0.266 0.93 0 0.133 0.133 0.266 0.266 0.266 0.532s0 0.399-0.133 0.399c-0.133 0.266-0.399 0.266-0.532 0.266z"></path>
<path d="M12.013 7.395c-0.133 0-0.399 0-0.532-0.266-0.133-0.133-0.133-0.266-0.133-0.399s0-0.399 0.133-0.532c0.266-0.266 0.664-0.266 0.93 0 0.133 0.133 0.266 0.266 0.266 0.532s0 0.399-0.133 0.399c-0.133 0.266-0.399 0.266-0.532 0.266z"></path>
</symbol>
<symbol id="steak" viewBox="0 0 32 32">
<path d="M10.199 5.086c-2.485 0.324-4.311 1.226-5.713 2.832-0.544 0.627-1.259 1.803-1.424 2.337-0.017 0.060-0.082 0.247-0.143 0.412-0.198 0.539-0.379 1.331-0.5 2.199-0.066 0.467-0.214 1.507-0.335 2.309-0.203 1.342-0.22 1.523-0.198 2.282 0.044 1.309 0.313 2.403 0.891 3.574 0.489 1.006 0.907 1.578 1.754 2.419 1.072 1.067 2.139 1.682 3.854 2.227 0.093 0.027 0.522 0.104 0.962 0.17 1.688 0.247 3.557 0 4.822-0.643 1.149-0.588 2.271-1.743 2.909-2.991 1.292-2.546 3.898-3.766 6.62-3.096 0.313 0.077 0.61 0.159 0.66 0.187 0.099 0.055 0.511 0.225 0.742 0.313 0.297 0.11 0.803 0.187 1.21 0.187 1.034-0.006 1.864-0.346 2.557-1.050 0.445-0.445 0.687-0.847 0.874-1.435 0.165-0.522 0.665-4.019 0.665-4.646 0-1.138-0.566-2.243-1.567-3.068-0.715-0.594-2.667-1.655-4.096-2.238-0.165-0.066-0.352-0.143-0.412-0.17-0.297-0.132-1.726-0.627-2.392-0.819-0.225-0.066-0.473-0.143-0.55-0.165-0.165-0.060-1.787-0.445-2.364-0.572-0.572-0.121-2.485-0.401-3.216-0.473-1.792-0.176-4.564-0.214-5.608-0.082zM14.708 5.878c1.924 0.165 2.958 0.319 5.086 0.775 1.149 0.242 3.656 1.045 4.701 1.507 0.093 0.039 0.302 0.132 0.467 0.203 0.737 0.313 2.331 1.155 2.843 1.496 1.309 0.88 1.913 1.963 1.77 3.194-0.077 0.693-0.225 1.072-0.594 1.534-0.269 0.33-0.599 0.566-1.089 0.764-0.396 0.165-0.478 0.176-1.061 0.176-0.632 0.005-0.638 0-1.375-0.28-1.21-0.462-1.979-0.599-2.969-0.544-1.754 0.104-3.255 0.786-4.41 2.001-0.462 0.489-0.764 0.918-1.144 1.633-0.352 0.654-0.632 1.045-1.111 1.545-1.166 1.215-2.672 1.803-4.58 1.792-2.001-0.011-3.623-0.61-5.201-1.913-1.017-0.847-1.908-2.172-2.359-3.53-0.253-0.77-0.335-1.248-0.368-2.155-0.11-3.013 1.127-5.564 3.392-7.010 1.078-0.693 2.518-1.149 3.876-1.237 0.83-0.050 3.249-0.022 4.124 0.050zM24.137 15.659c0.423 0.11 0.566 0.159 1.265 0.44 1.177 0.473 2.441 0.346 3.458-0.341 0.159-0.11 0.308-0.198 0.33-0.198 0.038 0-0.044 0.643-0.165 1.292-0.148 0.775-0.726 1.55-1.386 1.864-0.841 0.396-1.759 0.396-2.678 0.006-1.067-0.451-2.315-0.649-3.332-0.528-1.567 0.187-2.81 0.77-3.893 1.82-0.539 0.522-0.918 1.039-1.419 1.957-0.385 0.698-0.698 1.111-1.204 1.584-1.364 1.287-3.332 1.825-5.548 1.512-2.436-0.341-4.613-1.869-5.883-4.118-0.627-1.122-0.995-2.513-0.984-3.766 0.006-0.792 0.050-0.858 0.242-0.357 1.105 2.936 3.805 5.141 6.818 5.581 1.237 0.181 2.628 0.104 3.794-0.203 1.666-0.44 3.085-1.655 4.069-3.48 0.946-1.759 2.32-2.799 4.151-3.134 0.577-0.11 1.82-0.071 2.364 0.071z"></path>
<path d="M16 8.011c-0.352 0.126-0.819 0.621-0.962 1.006-0.159 0.44-0.143 0.935 0.033 1.32 0.115 0.253 1.21 1.781 2.018 2.821 0.22 0.286 0.577 0.539 0.907 0.643 0.379 0.121 0.885 0.044 1.485-0.214 1.045-0.456 2.089-0.665 3.271-0.671 1.127 0 2.051 0.181 3.178 0.627 0.616 0.242 0.748 0.269 1.045 0.225 0.786-0.115 1.094-0.99 0.599-1.704-0.11-0.159-0.308-0.374-0.429-0.478-0.5-0.407-2.183-1.281-3.447-1.792-0.319-0.132-0.627-0.258-0.687-0.286-0.374-0.17-2.045-0.698-2.892-0.918-2.276-0.588-3.596-0.77-4.118-0.577zM17.649 8.88c1.408 0.269 2.034 0.418 3.167 0.748 0.709 0.203 2.205 0.731 2.634 0.929 0.060 0.027 0.247 0.104 0.412 0.176 0.973 0.396 2.551 1.265 2.87 1.567 0.269 0.264 0.407 0.544 0.313 0.654-0.077 0.093-0.137 0.077-0.748-0.176-0.671-0.286-1.265-0.44-2.161-0.572-1.584-0.236-3.134-0.044-4.701 0.594-0.907 0.368-1.287 0.33-1.682-0.165-0.616-0.764-1.913-2.573-1.963-2.738-0.115-0.363 0.055-0.775 0.434-1.039 0.165-0.11 0.231-0.121 0.572-0.099 0.214 0.017 0.594 0.071 0.852 0.121z"></path>
<path d="M8.533 9.682c-0.819 0.126-1.792 0.621-2.326 1.182-0.544 0.566-0.907 1.314-1.034 2.111-0.407 2.507 1.012 5.163 3.376 6.34 0.495 0.247 1.16 0.467 1.617 0.533 1.166 0.176 2.529 0.027 3.332-0.363 0.61-0.302 1.347-1.039 1.759-1.776 0.33-0.583 0.445-1.386 0.28-1.935-0.143-0.473 0.005-0.258-2.667-3.843-0.891-1.193-1.336-1.605-2.1-1.941-0.643-0.286-1.562-0.412-2.238-0.308zM10.177 10.628c0.841 0.319 1.072 0.544 2.458 2.403 0.621 0.83 1.32 1.77 1.556 2.089 0.5 0.665 0.627 0.979 0.577 1.402-0.039 0.363-0.148 0.621-0.445 1.072-0.704 1.083-1.595 1.496-3.189 1.496-1.023 0-1.759-0.203-2.689-0.748-0.429-0.253-1.144-0.902-1.485-1.347-1.116-1.463-1.402-3.497-0.682-4.86 0.335-0.632 1.012-1.226 1.649-1.452 0.753-0.269 1.633-0.291 2.249-0.055z"></path>
</symbol>
<symbol id="ham" viewBox="0 0 32 32">
<path d="M16.969 2.475c-0.238 0.056-0.675 0.206-0.969 0.35-0.519 0.244-0.581 0.3-2.569 2.294-2.125 2.131-2.531 2.612-2.875 3.438-0.338 0.813-0.387 1.231-0.375 3.225 0.012 2.063-0.037 2.406-0.475 3.281-0.206 0.412-0.394 0.631-1.525 1.781-0.8 0.806-1.381 1.456-1.519 1.681-0.575 0.956-0.525 2.281 0.131 3.413 0.287 0.5 1.175 1.394 1.656 1.675 0.875 0.519 1.919 0.825 2.775 0.825 0.894 0 3.581-0.431 5.275-0.85 4.694-1.15 8.688-3.344 11.856-6.5 0.469-0.469 0.613-0.663 0.819-1.094 1.238-2.575-0.137-6.581-3.363-9.813-2-2-4.337-3.325-6.556-3.712-0.656-0.119-1.712-0.112-2.288 0.006zM19.706 3.188c3.663 0.912 7.569 4.594 8.881 8.363 0.294 0.85 0.413 1.512 0.413 2.338 0 1.162-0.262 1.887-0.931 2.556s-1.394 0.931-2.556 0.931c-0.825 0-1.488-0.119-2.344-0.413-2.531-0.881-5.113-2.969-6.825-5.525-0.425-0.637-1.15-2.1-1.363-2.75-0.369-1.138-0.481-2.481-0.269-3.269 0.3-1.094 0.969-1.844 2.006-2.225 0.706-0.263 1.956-0.269 2.988-0.006zM14.019 6.175c-0.044 0.919 0.081 1.737 0.419 2.769 0.469 1.438 1.563 3.3 2.587 4.419 0.131 0.144 0.231 0.275 0.219 0.287-0.044 0.044-1.231-0.144-1.794-0.275-0.662-0.156-1.644-0.488-1.744-0.581-0.088-0.088-0.344-1.375-0.512-2.544-0.137-0.944-0.231-1.875-0.294-2.925l-0.044-0.713 0.588-0.588c0.319-0.325 0.588-0.588 0.594-0.588s0 0.331-0.019 0.737zM12.375 8.6c0.069 0.919 0.3 2.544 0.469 3.331 0.050 0.256 0.081 0.475 0.069 0.494-0.044 0.044-1.069-0.525-1.6-0.887l-0.469-0.319-0.019-0.563c-0.037-1.113 0.319-2.144 1.031-3l0.363-0.438 0.044 0.25c0.025 0.138 0.075 0.644 0.113 1.131zM11.519 12.431c0.231 0.137 0.681 0.387 1 0.544 0.313 0.162 0.581 0.294 0.588 0.3s0.137 0.444 0.294 0.975c0.15 0.531 0.363 1.2 0.463 1.488l0.188 0.525-0.169-0.044c-0.206-0.050-3.181-1.525-3.231-1.6-0.019-0.031 0.012-0.262 0.069-0.519 0.056-0.287 0.094-0.794 0.094-1.294v-0.819l0.144 0.088c0.075 0.056 0.325 0.213 0.563 0.356zM14.275 13.688c0.856 0.306 2.525 0.625 3.244 0.625 0.238 0 0.369 0.025 0.381 0.075 0.012 0.044 0.087 0.444 0.163 0.894 0.075 0.444 0.244 1.25 0.381 1.775 0.131 0.531 0.231 0.975 0.225 0.981-0.031 0.031-1.894-0.613-2.806-0.969l-0.975-0.387-0.287-0.769c-0.244-0.675-0.725-2.194-0.725-2.306 0-0.056-0.012-0.063 0.4 0.081zM19.25 15.481c0.656 0.506 1.606 1.106 2.319 1.462l0.669 0.331 0.025 0.75c0.012 0.419 0.019 0.769 0.006 0.781-0.063 0.087-2.681-0.45-2.813-0.575-0.087-0.087-0.406-1.231-0.619-2.212-0.175-0.806-0.188-1-0.069-0.912 0.038 0.037 0.256 0.206 0.481 0.375zM11.863 15.956c0.781 0.387 1.669 0.819 1.969 0.956l0.55 0.244 0.55 1.125c0.556 1.15 1.119 2.125 1.613 2.831 0.156 0.219 0.269 0.413 0.25 0.431-0.094 0.087-1.675-0.538-2.95-1.169l-1-0.494-0.512-0.831c-0.588-0.956-1.012-1.744-1.563-2.9-0.387-0.794-0.425-0.9-0.363-0.9 0.019 0 0.675 0.319 1.456 0.706zM10.481 16.988c0.281 0.575 0.637 1.269 0.794 1.538 0.156 0.275 0.275 0.506 0.262 0.519-0.050 0.050-1.331-0.856-2.581-1.837-0.088-0.069-0.044-0.137 0.313-0.519 0.231-0.238 0.463-0.506 0.519-0.594s0.119-0.156 0.144-0.156c0.019 0.006 0.269 0.475 0.55 1.050zM24.444 17.913c0.406 0.069 0.856 0.094 1.306 0.075 0.381-0.012 0.688-0.012 0.688-0.006 0 0.056-1.238 0.969-1.356 0.994-0.169 0.044-2.075-0.012-2.125-0.063-0.012-0.012-0.044-0.337-0.063-0.712l-0.038-0.694 0.488 0.15c0.262 0.081 0.762 0.2 1.1 0.256zM9.475 18.413c0.537 0.406 2.081 1.444 2.662 1.781 0.188 0.113 0.394 0.331 0.637 0.675 0.425 0.606 1.519 1.975 1.75 2.188 0.088 0.087 0.162 0.188 0.162 0.225 0 0.044-0.256 0.113-0.625 0.175-0.619 0.1-0.631 0.1-1.156-0.050-0.575-0.156-0.744-0.262-1.781-1.119-0.813-0.669-2.081-1.975-2.856-2.944-0.388-0.481-0.706-0.906-0.706-0.95 0-0.038 0.188-0.244 0.412-0.45l0.419-0.381 0.262 0.219c0.144 0.119 0.512 0.4 0.819 0.631zM15.856 17.756c0.269 0.106 1.063 0.387 1.769 0.625 0.706 0.231 1.3 0.462 1.325 0.506s0.15 0.363 0.275 0.706c0.125 0.337 0.381 0.95 0.563 1.356 0.188 0.4 0.337 0.762 0.337 0.794s-0.231 0.137-0.512 0.244l-0.506 0.181-0.569-0.119c-0.65-0.137-0.65-0.137-1.306-1.069-0.538-0.762-1.063-1.631-1.525-2.531-0.369-0.725-0.438-0.887-0.363-0.887 0.012 0 0.244 0.087 0.512 0.194zM7.787 19.762c0.338 0.425 1.056 1.219 1.6 1.762 0.544 0.55 0.981 1.006 0.969 1.012-0.037 0.044-1.975-0.962-2.531-1.313-0.85-0.531-0.888-0.569-0.931-0.981s0.131-1.244 0.256-1.244c0.013 0 0.3 0.344 0.638 0.762zM20.875 19.244c0.569 0.106 1.144 0.219 1.275 0.244l0.25 0.044 0.106 0.5c0.063 0.275 0.113 0.519 0.113 0.544 0.006 0.044-1.738 0.925-1.825 0.925-0.069 0-0.55-1.031-0.863-1.837-0.275-0.706-0.269-0.688-0.163-0.644 0.038 0.012 0.538 0.119 1.106 0.225zM14.381 21.337c0.725 0.337 1.6 0.663 2.513 0.938 0.431 0.131 0.706 0.25 0.719 0.3 0.012 0.069-0.244 0.156-1.056 0.363-0.894 0.219-1.081 0.25-1.144 0.181-0.644-0.706-1.662-1.944-1.662-2.019 0-0.056 0.006-0.056 0.631 0.238zM7.719 21.9c0.556 0.387 2.15 1.15 3.281 1.569 0.525 0.2 0.688 0.281 0.606 0.313-0.156 0.063-1.056-0.012-1.512-0.131-0.969-0.25-2.138-1.050-2.556-1.762-0.063-0.1 0.031-0.094 0.181 0.012z"></path>
<path d="M17.444 4.313c-0.669 0.144-1.212 0.6-1.425 1.206-0.175 0.513-0.15 1.594 0.056 2.362 0.956 3.481 4.563 7.088 8.044 8.044 0.781 0.213 1.85 0.237 2.381 0.050 0.462-0.162 0.938-0.637 1.1-1.1 0.188-0.531 0.163-1.6-0.050-2.381-0.95-3.456-4.581-7.1-8.012-8.031-0.631-0.169-1.644-0.244-2.094-0.15zM18.887 4.963c1.988 0.381 4.225 1.856 5.975 3.944 1.781 2.125 2.675 4.694 2.056 5.919-0.619 1.219-3.163 0.744-5.75-1.075-0.756-0.531-2.387-2.162-2.919-2.919-1.156-1.644-1.712-3.037-1.719-4.3 0-0.544 0.019-0.662 0.156-0.931 0.188-0.369 0.381-0.525 0.794-0.638 0.4-0.106 0.844-0.106 1.406 0z"></path>
<path d="M20.756 9.119c-0.294 0.294-0.056 0.994 0.55 1.588 0.831 0.825 1.762 0.9 1.681 0.144-0.050-0.406-0.231-0.725-0.669-1.169-0.444-0.438-0.762-0.619-1.169-0.669-0.206-0.019-0.288 0-0.394 0.106z"></path>
<path d="M5.906 24l-0.631 0.631-0.306-0.144c-0.456-0.206-1.131-0.194-1.569 0.031-0.4 0.2-0.794 0.644-0.925 1.025-0.112 0.331-0.131 0.819-0.038 1.144 0.163 0.581 0.7 1.113 1.294 1.256 0.231 0.063 0.263 0.094 0.325 0.325 0.144 0.594 0.675 1.131 1.256 1.294 0.325 0.094 0.813 0.075 1.144-0.038 0.4-0.137 0.869-0.569 1.050-0.975 0.2-0.45 0.2-1.081 0.006-1.519l-0.144-0.306 0.831-0.831c0.45-0.456 0.813-0.837 0.8-0.844-0.094-0.069-0.519-0.238-0.581-0.238-0.044 0-0.463 0.387-0.938 0.863-0.581 0.581-0.856 0.9-0.856 0.994 0 0.075 0.081 0.269 0.181 0.425 0.325 0.512 0.313 0.988-0.044 1.462-0.356 0.481-1.162 0.587-1.625 0.212-0.313-0.25-0.513-0.613-0.513-0.938 0-0.331-0.125-0.456-0.456-0.456-0.325 0-0.688-0.2-0.938-0.519-0.406-0.5-0.256-1.3 0.319-1.7 0.225-0.156 0.331-0.188 0.631-0.188s0.419 0.038 0.688 0.206c0.181 0.106 0.388 0.2 0.463 0.2 0.094 0 0.394-0.256 0.919-0.781l0.775-0.781-0.213-0.219c-0.119-0.119-0.225-0.219-0.25-0.219-0.019 0-0.313 0.281-0.656 0.625z"></path>
</symbol>
</defs>
</svg>
