<svg aria-hidden="true" style="position: absolute; width: 0; height: 0; overflow: hidden;" version="1.1" xmlns="http://www.w3.org/2000/svg" xmlns:xlink="http://www.w3.org/1999/xlink">
<defs>
<symbol id="search" viewBox="0 0 24 24">
<path d="M16.041 15.856c-0.034 0.026-0.067 0.055-0.099 0.087s-0.060 0.064-0.087 0.099c-1.258 1.213-2.969 1.958-4.855 1.958-1.933 0-3.682-0.782-4.95-2.050s-2.050-3.017-2.050-4.95 0.782-3.682 2.050-4.95 3.017-2.050 4.95-2.050 3.682 0.782 4.95 2.050 2.050 3.017 2.050 4.95c0 1.886-0.745 3.597-1.959 4.856zM21.707 20.293l-3.675-3.675c1.231-1.54 1.968-3.493 1.968-5.618 0-2.485-1.008-4.736-2.636-6.364s-3.879-2.636-6.364-2.636-4.736 1.008-6.364 2.636-2.636 3.879-2.636 6.364 1.008 4.736 2.636 6.364 3.879 2.636 6.364 2.636c2.125 0 4.078-0.737 5.618-1.968l3.675 3.675c0.391 0.391 1.024 0.391 1.414 0s0.391-1.024 0-1.414z"></path>
</symbol>
<symbol id="profile" viewBox="0 0 32 32">
<path d="M16.002 22.54c-6.862 0-10.34 1.179-10.34 3.506 0 2.348 3.478 3.538 10.34 3.538 6.86 0 10.337-1.179 10.337-3.506 0-2.348-3.477-3.538-10.337-3.538zM16.002 31.999c-3.155 0-12.756 0-12.756-5.954 0-5.308 7.28-5.921 12.756-5.921 3.155 0 12.752 0 12.752 5.953 0 5.308-7.279 5.921-12.752 5.921z"></path>
<path d="M16.002 2.3c-3.448 0-6.253 2.804-6.253 6.251-0.011 3.436 2.773 6.239 6.206 6.251l0.047 1.15v-1.15c3.446 0 6.25-2.805 6.25-6.251 0-3.448-2.804-6.251-6.25-6.251zM16.002 17.101h-0.052c-4.705-0.015-8.517-3.852-8.501-8.554 0-4.71 3.836-8.546 8.553-8.546 4.715 0 8.549 3.836 8.549 8.551s-3.834 8.549-8.549 8.549z"></path>
</symbol>
<symbol id="cart" viewBox="0 0 32 32">
<path d="M11.315 30.342c1.078 0 1.953-0.878 1.953-1.961s-0.874-1.961-1.953-1.961c-1.078 0-1.953 0.878-1.953 1.961s0.874 1.961 1.953 1.961z"></path>
<path d="M22.611 30.342c1.078 0 1.953-0.878 1.953-1.961s-0.874-1.961-1.953-1.961c-1.078 0-1.953 0.878-1.953 1.961s0.874 1.961 1.953 1.961z"></path>
<path d="M5.202 0.896c-0.619-0.484-1.137-0.687-1.635-0.746l1.635 0.746zM3.567 0.149c-0.456-0.055-0.763-0.083-1.378-0.149l1.378 0.149zM2.189 0c-0.019 0-0.037 0-0.056 0h0.056zM3.57 2.13c-0.318-0.038-0.745-0.040-1.437-0.040h-1.093c-0.575 0-1.040-0.468-1.040-1.045s0.466-1.045 1.040-1.045h1.093zM3.57 2.13c0.29 0.035 0.37 0.089 0.407 0.118l-0.407-0.118zM6.585 3.437c0.005 0.018 0.009 0.036 0.014 0.054l0.010 0.041h13.589c2.51-0 4.514-0 6.015 0.224 1.534 0.229 2.824 0.729 3.588 1.972 0.765 1.244 0.63 2.63 0.145 4.115-0.475 1.454-1.377 3.261-2.506 5.528l-0.041 0.083-0.024 0.047c-0.462 0.927-0.844 1.693-1.221 2.289-0.397 0.626-0.835 1.142-1.447 1.521s-1.264 0.542-1.998 0.618c-0.697 0.072-1.547 0.072-2.574 0.072h-12.032c-0.698 0-1.263 0.568-1.263 1.269s0.566 1.269 1.263 1.269h16.385c0.575 0 1.040 0.468 1.040 1.045s-0.466 1.045-1.040 1.045h-16.385c-1.847 0-3.344-1.504-3.344-3.358 0-1.751 1.334-3.189 3.037-3.345l-2.934-12.81-0.066-0.26c-0.004-0.014-0.008-0.029-0.011-0.044l-0.204-0.808c-0.17-0.674-0.277-1.089-0.391-1.39-0.105-0.274-0.176-0.339-0.213-0.368zM7.113 5.622l2.815 12.29h10.154c1.093 0 1.835-0.001 2.413-0.061 0.554-0.058 0.868-0.162 1.118-0.317s0.484-0.391 0.785-0.865c0.313-0.495 0.648-1.164 1.14-2.15 1.18-2.367 2.009-4.038 2.431-5.328 0.418-1.277 0.343-1.908 0.062-2.364-0.281-0.457-0.808-0.807-2.123-1.003-1.33-0.198-3.178-0.201-5.8-0.201h-12.994zM6.585 3.437c-0.152-0.603-0.327-0.916-0.492-1.347l0.492 1.347zM6.093 2.090c-0.18-0.47-0.297-0.597-0.892-1.194l0.892 1.194z"></path>
<path d="M2.132 0l1.278 0.076c1.16 0.069 2.185 0.779 2.662 1.843l0.821 1.831-1.897 0.858-0.821-1.831c-0.159-0.355-0.501-0.591-0.887-0.614l-1.278-0.076 0.123-2.086z"></path>
</symbol>
<symbol id="arrow-right" viewBox="0 0 32 32">
<path d="M2.667 13.58h26.667c1.476 0 2.667 1.191 2.667 2.667s-1.191 2.667-2.667 2.667h-26.667c-1.476 0-2.667-1.191-2.667-2.667s1.191-2.667 2.667-2.667zM20.053 3.198l10.062 10.062c1.049 1.031 1.049 2.72 0 3.769s-2.738 1.049-3.769 0l-10.062-10.062c-1.031-1.031-1.031-2.72 0-3.769 1.049-1.031 2.738-1.031 3.769 0zM20.729 28.762c-1.084 1.084-2.827 1.084-3.911 0s-1.084-2.827 0-3.911l10.418-10.418c1.084-1.067 2.827-1.067 3.911 0 1.067 1.084 1.067 2.827 0 3.911l-10.418 10.418z"></path>
</symbol>
<symbol id="burger" viewBox="0 0 32 32">
<path d="M25 5v2h-25v-2h25z"></path>
<path d="M32 15v2h-32v-2h32z"></path>
<path d="M32 25v2h-25v-2h25z"></path>
<path d="M32 6c0 1.105-0.895 2-2 2s-2-0.895-2-2c0-1.105 0.895-2 2-2s2 0.895 2 2z"></path>
<path d="M4 26c0 1.105-0.895 2-2 2s-2-0.895-2-2c0-1.105 0.895-2 2-2s2 0.895 2 2z"></path>
</symbol>
</defs>
</svg>
