<svg aria-hidden="true" style="position: absolute; width: 0; height: 0; overflow: hidden;" version="1.1" xmlns="http://www.w3.org/2000/svg" xmlns:xlink="http://www.w3.org/1999/xlink">
<defs>
<symbol id="search" viewBox="0 0 24 24">
<path d="M16.041 15.856c-0.034 0.026-0.067 0.055-0.099 0.087s-0.060 0.064-0.087 0.099c-1.258 1.213-2.969 1.958-4.855 1.958-1.933 0-3.682-0.782-4.95-2.050s-2.050-3.017-2.050-4.95 0.782-3.682 2.050-4.95 3.017-2.050 4.95-2.050 3.682 0.782 4.95 2.050 2.050 3.017 2.050 4.95c0 1.886-0.745 3.597-1.959 4.856zM21.707 20.293l-3.675-3.675c1.231-1.54 1.968-3.493 1.968-5.618 0-2.485-1.008-4.736-2.636-6.364s-3.879-2.636-6.364-2.636-4.736 1.008-6.364 2.636-2.636 3.879-2.636 6.364 1.008 4.736 2.636 6.364 3.879 2.636 6.364 2.636c2.125 0 4.078-0.737 5.618-1.968l3.675 3.675c0.391 0.391 1.024 0.391 1.414 0s0.391-1.024 0-1.414z"></path>
</symbol>
<symbol id="profile" viewBox="0 0 32 32">
<path d="M16.002 22.54c-6.862 0-10.34 1.179-10.34 3.506 0 2.348 3.478 3.538 10.34 3.538 6.86 0 10.337-1.179 10.337-3.506 0-2.348-3.477-3.538-10.337-3.538zM16.002 31.999c-3.155 0-12.756 0-12.756-5.954 0-5.308 7.28-5.921 12.756-5.921 3.155 0 12.752 0 12.752 5.953 0 5.308-7.279 5.921-12.752 5.921z"></path>
<path d="M16.002 2.3c-3.448 0-6.253 2.804-6.253 6.251-0.011 3.436 2.773 6.239 6.206 6.251l0.047 1.15v-1.15c3.446 0 6.25-2.805 6.25-6.251 0-3.448-2.804-6.251-6.25-6.251zM16.002 17.101h-0.052c-4.705-0.015-8.517-3.852-8.501-8.554 0-4.71 3.836-8.546 8.553-8.546 4.715 0 8.549 3.836 8.549 8.551s-3.834 8.549-8.549 8.549z"></path>
</symbol>
<symbol id="cart" viewBox="0 0 32 32">
<path d="M11.315 30.342c1.078 0 1.953-0.878 1.953-1.961s-0.874-1.961-1.953-1.961c-1.078 0-1.953 0.878-1.953 1.961s0.874 1.961 1.953 1.961z"></path>
<path d="M22.611 30.342c1.078 0 1.953-0.878 1.953-1.961s-0.874-1.961-1.953-1.961c-1.078 0-1.953 0.878-1.953 1.961s0.874 1.961 1.953 1.961z"></path>
<path d="M5.202 0.896c-0.619-0.484-1.137-0.687-1.635-0.746l1.635 0.746zM3.567 0.149c-0.456-0.055-0.763-0.083-1.378-0.149l1.378 0.149zM2.189 0c-0.019 0-0.037 0-0.056 0h0.056zM3.57 2.13c-0.318-0.038-0.745-0.040-1.437-0.040h-1.093c-0.575 0-1.040-0.468-1.040-1.045s0.466-1.045 1.040-1.045h1.093zM3.57 2.13c0.29 0.035 0.37 0.089 0.407 0.118l-0.407-0.118zM6.585 3.437c0.005 0.018 0.009 0.036 0.014 0.054l0.010 0.041h13.589c2.51-0 4.514-0 6.015 0.224 1.534 0.229 2.824 0.729 3.588 1.972 0.765 1.244 0.63 2.63 0.145 4.115-0.475 1.454-1.377 3.261-2.506 5.528l-0.041 0.083-0.024 0.047c-0.462 0.927-0.844 1.693-1.221 2.289-0.397 0.626-0.835 1.142-1.447 1.521s-1.264 0.542-1.998 0.618c-0.697 0.072-1.547 0.072-2.574 0.072h-12.032c-0.698 0-1.263 0.568-1.263 1.269s0.566 1.269 1.263 1.269h16.385c0.575 0 1.040 0.468 1.040 1.045s-0.466 1.045-1.040 1.045h-16.385c-1.847 0-3.344-1.504-3.344-3.358 0-1.751 1.334-3.189 3.037-3.345l-2.934-12.81-0.066-0.26c-0.004-0.014-0.008-0.029-0.011-0.044l-0.204-0.808c-0.17-0.674-0.277-1.089-0.391-1.39-0.105-0.274-0.176-0.339-0.213-0.368zM7.113 5.622l2.815 12.29h10.154c1.093 0 1.835-0.001 2.413-0.061 0.554-0.058 0.868-0.162 1.118-0.317s0.484-0.391 0.785-0.865c0.313-0.495 0.648-1.164 1.14-2.15 1.18-2.367 2.009-4.038 2.431-5.328 0.418-1.277 0.343-1.908 0.062-2.364-0.281-0.457-0.808-0.807-2.123-1.003-1.33-0.198-3.178-0.201-5.8-0.201h-12.994zM6.585 3.437c-0.152-0.603-0.327-0.916-0.492-1.347l0.492 1.347zM6.093 2.090c-0.18-0.47-0.297-0.597-0.892-1.194l0.892 1.194z"></path>
<path d="M2.132 0l1.278 0.076c1.16 0.069 2.185 0.779 2.662 1.843l0.821 1.831-1.897 0.858-0.821-1.831c-0.159-0.355-0.501-0.591-0.887-0.614l-1.278-0.076 0.123-2.086z"></path>
</symbol>
<symbol id="arrow-right" viewBox="0 0 32 32">
<path d="M2.667 13.58h26.667c1.476 0 2.667 1.191 2.667 2.667s-1.191 2.667-2.667 2.667h-26.667c-1.476 0-2.667-1.191-2.667-2.667s1.191-2.667 2.667-2.667zM20.053 3.198l10.062 10.062c1.049 1.031 1.049 2.72 0 3.769s-2.738 1.049-3.769 0l-10.062-10.062c-1.031-1.031-1.031-2.72 0-3.769 1.049-1.031 2.738-1.031 3.769 0zM20.729 28.762c-1.084 1.084-2.827 1.084-3.911 0s-1.084-2.827 0-3.911l10.418-10.418c1.084-1.067 2.827-1.067 3.911 0 1.067 1.084 1.067 2.827 0 3.911l-10.418 10.418z"></path>
</symbol>
<symbol id="burger" viewBox="0 0 32 32">
<path d="M25 5v2h-25v-2h25z"></path>
<path d="M32 15v2h-32v-2h32z"></path>
<path d="M32 25v2h-25v-2h25z"></path>
<path d="M32 6c0 1.105-0.895 2-2 2s-2-0.895-2-2c0-1.105 0.895-2 2-2s2 0.895 2 2z"></path>
<path d="M4 26c0 1.105-0.895 2-2 2s-2-0.895-2-2c0-1.105 0.895-2 2-2s2 0.895 2 2z"></path>
</symbol>
<symbol id="telegram" viewBox="0 0 32 32">
<path d="M26.369 5.907c0.329-0.139 0.69-0.187 1.044-0.139s0.689 0.19 0.97 0.411c0.281 0.221 0.497 0.514 0.626 0.847s0.167 0.695 0.109 1.048l-3.024 18.343c-0.293 1.769-2.235 2.784-3.857 1.903-1.357-0.737-3.373-1.873-5.187-3.059-0.907-0.593-3.684-2.493-3.343-3.845 0.293-1.156 4.96-5.5 7.627-8.083 1.047-1.015 0.569-1.6-0.667-0.667-3.069 2.317-7.997 5.841-9.627 6.833-1.437 0.875-2.187 1.024-3.083 0.875-1.635-0.272-3.151-0.693-4.388-1.207-1.672-0.693-1.591-2.992-0.001-3.661l22.8-9.6z"></path>
</symbol>
<symbol id="instagram" viewBox="0 0 32 32">
<path d="M10.4 2.667h11.2c4.267 0 7.733 3.467 7.733 7.733v11.2c0 2.051-0.815 4.018-2.265 5.468s-3.417 2.265-5.468 2.265h-11.2c-4.267 0-7.733-3.467-7.733-7.733v-11.2c0-2.051 0.815-4.018 2.265-5.468s3.417-2.265 5.468-2.265zM10.133 5.333c-1.273 0-2.494 0.506-3.394 1.406s-1.406 2.121-1.406 3.394v11.733c0 2.653 2.147 4.8 4.8 4.8h11.733c1.273 0 2.494-0.506 3.394-1.406s1.406-2.121 1.406-3.394v-11.733c0-2.653-2.147-4.8-4.8-4.8h-11.733zM23 7.333c0.442 0 0.866 0.176 1.179 0.488s0.488 0.736 0.488 1.178c0 0.442-0.176 0.866-0.488 1.178s-0.737 0.488-1.179 0.488c-0.442 0-0.866-0.176-1.179-0.488s-0.488-0.736-0.488-1.178c0-0.442 0.176-0.866 0.488-1.178s0.737-0.488 1.179-0.488zM16 9.333c1.768 0 3.464 0.702 4.714 1.953s1.953 2.946 1.953 4.714-0.702 3.464-1.953 4.714c-1.25 1.25-2.946 1.953-4.714 1.953s-3.464-0.702-4.714-1.953c-1.25-1.25-1.953-2.946-1.953-4.714s0.702-3.464 1.953-4.714c1.25-1.25 2.946-1.953 4.714-1.953zM16 12c-1.061 0-2.078 0.421-2.828 1.172s-1.172 1.768-1.172 2.828c0 1.061 0.421 2.078 1.172 2.828s1.768 1.172 2.828 1.172c1.061 0 2.078-0.421 2.828-1.172s1.172-1.768 1.172-2.828c0-1.061-0.421-2.078-1.172-2.828s-1.768-1.172-2.828-1.172z"></path>
<path d="M10.4 2.667h11.2c4.267 0 7.733 3.467 7.733 7.733v11.2c0 2.051-0.815 4.018-2.265 5.468s-3.417 2.265-5.468 2.265h-11.2c-4.267 0-7.733-3.467-7.733-7.733v-11.2c0-2.051 0.815-4.018 2.265-5.468s3.417-2.265 5.468-2.265zM10.133 5.333c-1.273 0-2.494 0.506-3.394 1.406s-1.406 2.121-1.406 3.394v11.733c0 2.653 2.147 4.8 4.8 4.8h11.733c1.273 0 2.494-0.506 3.394-1.406s1.406-2.121 1.406-3.394v-11.733c0-2.653-2.147-4.8-4.8-4.8h-11.733zM23 7.333c0.442 0 0.866 0.176 1.179 0.488s0.488 0.736 0.488 1.178c0 0.442-0.176 0.866-0.488 1.178s-0.737 0.488-1.179 0.488c-0.442 0-0.866-0.176-1.179-0.488s-0.488-0.736-0.488-1.178c0-0.442 0.176-0.866 0.488-1.178s0.737-0.488 1.179-0.488zM16 9.333c1.768 0 3.464 0.702 4.714 1.953s1.953 2.946 1.953 4.714-0.702 3.464-1.953 4.714c-1.25 1.25-2.946 1.953-4.714 1.953s-3.464-0.702-4.714-1.953c-1.25-1.25-1.953-2.946-1.953-4.714s0.702-3.464 1.953-4.714c1.25-1.25 2.946-1.953 4.714-1.953zM16 12c-1.061 0-2.078 0.421-2.828 1.172s-1.172 1.768-1.172 2.828c0 1.061 0.421 2.078 1.172 2.828s1.768 1.172 2.828 1.172c1.061 0 2.078-0.421 2.828-1.172s1.172-1.768 1.172-2.828c0-1.061-0.421-2.078-1.172-2.828s-1.768-1.172-2.828-1.172z"></path>
</symbol>
<symbol id="tiktok" viewBox="0 0 32 32">
<path d="M22.133 7.76c-0.911-1.041-1.413-2.377-1.413-3.76h-4.12v16.533c-0.031 0.895-0.409 1.743-1.053 2.365s-1.505 0.969-2.4 0.969c-1.893 0-3.467-1.547-3.467-3.467 0-2.293 2.213-4.013 4.493-3.307v-4.213c-4.6-0.613-8.627 2.96-8.627 7.52 0 4.44 3.68 7.6 7.587 7.6 4.187 0 7.587-3.4 7.587-7.6v-8.387c1.671 1.2 3.677 1.843 5.733 1.84v-4.12c0 0-2.507 0.12-4.32-1.973z"></path>
<path d="M22.133 7.76c-0.911-1.041-1.413-2.377-1.413-3.76h-4.12v16.533c-0.031 0.895-0.409 1.743-1.053 2.365s-1.505 0.969-2.4 0.969c-1.893 0-3.467-1.547-3.467-3.467 0-2.293 2.213-4.013 4.493-3.307v-4.213c-4.6-0.613-8.627 2.96-8.627 7.52 0 4.44 3.68 7.6 7.587 7.6 4.187 0 7.587-3.4 7.587-7.6v-8.387c1.671 1.2 3.677 1.843 5.733 1.84v-4.12c0 0-2.507 0.12-4.32-1.973z"></path>
</symbol>
<symbol id="facebook" viewBox="0 0 32 32">
<path d="M18.667 18h3.333l1.333-5.333h-4.667v-2.667c0-1.373 0-2.667 2.667-2.667h2v-4.48c-0.435-0.057-2.076-0.187-3.809-0.187-3.62 0-6.191 2.209-6.191 6.267v3.733h-4v5.333h4v11.333h5.333v-11.333z"></path>
<path d="M18.667 18h3.333l1.333-5.333h-4.667v-2.667c0-1.373 0-2.667 2.667-2.667h2v-4.48c-0.435-0.057-2.076-0.187-3.809-0.187-3.62 0-6.191 2.209-6.191 6.267v3.733h-4v5.333h4v11.333h5.333v-11.333z"></path>
</symbol>
<symbol id="youtube" viewBox="0 0 32 32">
<path d="M16 5.333c1.14 0 2.309 0.029 3.443 0.077l1.339 0.064 1.281 0.076 1.2 0.081 1.096 0.085c1.19 0.091 2.309 0.598 3.161 1.433s1.382 1.944 1.497 3.131l0.053 0.567 0.1 1.213c0.093 1.257 0.163 2.628 0.163 3.939s-0.069 2.681-0.163 3.939l-0.1 1.213-0.053 0.567c-0.115 1.188-0.645 2.297-1.498 3.132s-1.972 1.342-3.162 1.432l-1.093 0.084-1.2 0.083-1.283 0.076-1.339 0.064c-1.147 0.050-2.295 0.075-3.443 0.077-1.148-0.002-2.296-0.028-3.443-0.077l-1.339-0.064-1.281-0.076-1.2-0.083-1.096-0.084c-1.19-0.091-2.309-0.598-3.161-1.433s-1.382-1.944-1.497-3.131l-0.053-0.567-0.1-1.213c-0.102-1.311-0.156-2.624-0.163-3.939 0-1.311 0.069-2.681 0.163-3.939l0.1-1.213 0.053-0.567c0.115-1.187 0.645-2.296 1.497-3.131s1.971-1.342 3.16-1.433l1.095-0.085 1.2-0.081 1.283-0.076 1.339-0.064c1.147-0.050 2.296-0.075 3.444-0.077zM13.333 12.767v6.467c0 0.616 0.667 1 1.2 0.693l5.6-3.233c0.122-0.070 0.223-0.171 0.293-0.293s0.107-0.26 0.107-0.4c0-0.141-0.037-0.279-0.107-0.4s-0.172-0.223-0.293-0.293l-5.6-3.232c-0.122-0.070-0.26-0.107-0.4-0.107s-0.278 0.037-0.4 0.107c-0.122 0.070-0.223 0.171-0.293 0.293s-0.107 0.26-0.107 0.4v-0.001z"></path>
<path d="M16 5.333c1.14 0 2.309 0.029 3.443 0.077l1.339 0.064 1.281 0.076 1.2 0.081 1.096 0.085c1.19 0.091 2.309 0.598 3.161 1.433s1.382 1.944 1.497 3.131l0.053 0.567 0.1 1.213c0.093 1.257 0.163 2.628 0.163 3.939s-0.069 2.681-0.163 3.939l-0.1 1.213-0.053 0.567c-0.115 1.188-0.645 2.297-1.498 3.132s-1.972 1.342-3.162 1.432l-1.093 0.084-1.2 0.083-1.283 0.076-1.339 0.064c-1.147 0.050-2.295 0.075-3.443 0.077-1.148-0.002-2.296-0.028-3.443-0.077l-1.339-0.064-1.281-0.076-1.2-0.083-1.096-0.084c-1.19-0.091-2.309-0.598-3.161-1.433s-1.382-1.944-1.497-3.131l-0.053-0.567-0.1-1.213c-0.102-1.311-0.156-2.624-0.163-3.939 0-1.311 0.069-2.681 0.163-3.939l0.1-1.213 0.053-0.567c0.115-1.187 0.645-2.296 1.497-3.131s1.971-1.342 3.16-1.433l1.095-0.085 1.2-0.081 1.283-0.076 1.339-0.064c1.147-0.050 2.296-0.075 3.444-0.077zM13.333 12.767v6.467c0 0.616 0.667 1 1.2 0.693l5.6-3.233c0.122-0.070 0.223-0.171 0.293-0.293s0.107-0.26 0.107-0.4c0-0.141-0.037-0.279-0.107-0.4s-0.172-0.223-0.293-0.293l-5.6-3.232c-0.122-0.070-0.26-0.107-0.4-0.107s-0.278 0.037-0.4 0.107c-0.122 0.070-0.223 0.171-0.293 0.293s-0.107 0.26-0.107 0.4v-0.001z"></path>
</symbol>
<symbol id="factory" viewBox="0 0 43 32">
<path d="M42 16h-2v-15.333c0-0.364-0.302-0.667-0.667-0.667h-5.333c-0.364 0-0.667 0.302-0.667 0.667v15.333h-2.667v-15.333c0-0.364-0.302-0.667-0.667-0.667h-5.333c-0.364 0-0.667 0.302-0.667 0.667v15.333h-2.667v-9.333c0-0.249-0.142-0.48-0.364-0.596s-0.498-0.089-0.693 0.053l-8.942 6.56v-6.018c0-0.249-0.142-0.48-0.364-0.596s-0.498-0.089-0.693 0.053l-10 7.333c-0.178 0.133-0.276 0.329-0.276 0.542v17.333c0 0.364 0.302 0.667 0.667 0.667h41.333c0.364 0 0.667-0.302 0.667-0.667v-14.667c0-0.364-0.302-0.667-0.667-0.667zM38.667 1.333v1.333h-4v-1.333zM34.667 4h4v12h-4zM29.333 1.333v1.333h-4v-1.333zM25.333 4h4v12h-4zM41.333 30.667h-4v-3.333c0-0.364-0.302-0.667-0.667-0.667h-21.333c-0.364 0-0.667 0.302-0.667 0.667v3.333h-2.667v-3.333c0-0.364-0.302-0.667-0.667-0.667h-5.333c-0.364 0-0.667 0.302-0.667 0.667v3.333h-4v-16.329l8.667-6.356v6.018c0 0.249 0.142 0.48 0.364 0.596s0.498 0.089 0.693-0.053l8.942-6.56v8.684c0 0.364 0.302 0.667 0.667 0.667h20.667zM36 30.667h-20v-2.667h20zM10.667 30.667h-4v-2.667h4z"></path>
<path d="M11.333 21.333h-5.333c-0.364 0-0.667 0.302-0.667 0.667v2.667c0 0.364 0.302 0.667 0.667 0.667h5.333c0.364 0 0.667-0.302 0.667-0.667v-2.667c0-0.364-0.302-0.667-0.667-0.667zM10.667 24h-4v-1.333h4z"></path>
<path d="M20.667 21.333h-5.333c-0.364 0-0.667 0.302-0.667 0.667v2.667c0 0.364 0.302 0.667 0.667 0.667h5.333c0.364 0 0.667-0.302 0.667-0.667v-2.667c0-0.364-0.302-0.667-0.667-0.667zM20 24h-4v-1.333h4z"></path>
<path d="M28.667 21.333h-5.333c-0.364 0-0.667 0.302-0.667 0.667v2.667c0 0.364 0.302 0.667 0.667 0.667h5.333c0.364 0 0.667-0.302 0.667-0.667v-2.667c0-0.364-0.302-0.667-0.667-0.667zM28 24h-4v-1.333h4z"></path>
<path d="M36.667 21.333h-5.333c-0.364 0-0.667 0.302-0.667 0.667v2.667c0 0.364 0.302 0.667 0.667 0.667h5.333c0.364 0 0.667-0.302 0.667-0.667v-2.667c0-0.364-0.302-0.667-0.667-0.667zM36 24h-4v-1.333h4z"></path>
</symbol>
<symbol id="certificate" viewBox="0 0 32 32">
<path d="M16.173 11.344h-11.999c-0.259 0-0.469 0.21-0.469 0.469s0.21 0.469 0.469 0.469h11.999c0.259 0 0.469-0.21 0.469-0.469s-0.21-0.469-0.469-0.469z"></path>
<path d="M16.173 14.638h-11.999c-0.259 0-0.469 0.21-0.469 0.469s0.21 0.469 0.469 0.469h11.999c0.259 0 0.469-0.21 0.469-0.469s-0.21-0.469-0.469-0.469z"></path>
<path d="M16.173 17.931h-11.999c-0.259 0-0.469 0.21-0.469 0.469s0.21 0.469 0.469 0.469h11.999c0.259 0 0.469-0.21 0.469-0.469s-0.21-0.469-0.469-0.469z"></path>
<path d="M16.642 21.693c0-0.259-0.21-0.469-0.469-0.469h-11.999c-0.259 0-0.469 0.21-0.469 0.469s0.21 0.469 0.469 0.469h11.999c0.259 0 0.469-0.21 0.469-0.469z"></path>
<path d="M4.174 26.051c-0.259 0-0.469 0.21-0.469 0.469s0.21 0.469 0.469 0.469h6.015c0.259 0 0.469-0.21 0.469-0.469s-0.21-0.469-0.469-0.469z"></path>
<path d="M21.575 5.803v-1.521c0-0.579-0.471-1.051-1.051-1.051h-9.623c-0.579 0-1.051 0.471-1.051 1.051v1.521c0 0.579 0.471 1.051 1.051 1.051h0.813c0.259 0 0.469-0.21 0.469-0.469s-0.21-0.469-0.469-0.469h-0.813c-0.062 0-0.113-0.051-0.113-0.113v-1.521c0-0.062 0.051-0.113 0.113-0.113h9.623c0.063 0 0.113 0.051 0.113 0.113v1.521c0 0.062-0.051 0.113-0.113 0.113h-6.619c-0.259 0-0.469 0.21-0.469 0.469s0.21 0.469 0.469 0.469h6.619c0.579 0 1.051-0.471 1.051-1.051z"></path>
<path d="M25.079 28.581c-0.259 0-0.469 0.21-0.469 0.469v0.631c0 0.762-0.62 1.382-1.382 1.382h-20.735c-0.762 0-1.382-0.62-1.382-1.382v-22.529c0-0.101 0.012-0.201 0.033-0.298h4.268c0.891 0 1.616-0.725 1.616-1.616v-4.268c0.097-0.021 0.196-0.033 0.298-0.033h15.902c0.762 0 1.382 0.62 1.382 1.382v6.24c0 0.259 0.21 0.469 0.469 0.469s0.469-0.21 0.469-0.469v-6.24c0-1.279-1.040-2.319-2.319-2.319h-15.902c-0.619 0-1.202 0.241-1.64 0.679l-4.833 4.833c-0.438 0.438-0.679 1.020-0.679 1.64v22.529c0 1.279 1.040 2.319 2.319 2.319h20.735c1.279 0 2.319-1.040 2.319-2.319v-0.631c0-0.259-0.21-0.469-0.469-0.469zM6.091 1.6v3.638c0 0.374-0.304 0.678-0.678 0.678h-3.638z"></path>
<path d="M31.499 16.75c0.329-0.483 0.414-1.079 0.234-1.634s-0.6-0.988-1.15-1.185c-0.365-0.131-0.608-0.466-0.62-0.853-0.018-0.584-0.299-1.116-0.772-1.46s-1.066-0.447-1.626-0.283c-0.372 0.109-0.766-0.019-1.003-0.326-0.358-0.462-0.898-0.727-1.482-0.727s-1.125 0.265-1.482 0.727c-0.237 0.307-0.631 0.434-1.003 0.326-0.561-0.164-1.154-0.061-1.627 0.283s-0.754 0.875-0.772 1.46c-0.012 0.387-0.255 0.722-0.62 0.853-0.55 0.197-0.969 0.629-1.15 1.185s-0.095 1.151 0.234 1.634c0.218 0.32 0.218 0.734 0 1.055-0.329 0.483-0.414 1.079-0.234 1.634s0.6 0.988 1.15 1.185c0.365 0.131 0.608 0.466 0.62 0.853 0.016 0.537 0.262 1.042 0.676 1.385 0.273 0.226 0.6 0.368 0.943 0.415v4.267c0 0.36 0.195 0.693 0.51 0.868s0.7 0.168 1.007-0.021l1.719-1.058c0.028-0.017 0.045-0.009 0.060 0l1.719 1.058c0.307 0.189 0.692 0.197 1.007 0.021s0.51-0.508 0.51-0.868v-4.267c0.343-0.047 0.67-0.189 0.943-0.415 0.413-0.343 0.659-0.848 0.676-1.385 0.012-0.387 0.255-0.723 0.62-0.853 0.55-0.197 0.969-0.629 1.15-1.185s0.095-1.151-0.234-1.634c-0.218-0.32-0.218-0.734-0-1.055zM27.32 27.594l-1.719-1.058c-0.32-0.197-0.723-0.197-1.043 0l-1.719 1.058c-0.039 0.024-0.087-0.004-0.087-0.049v-4.356c0.322-0.037 0.642 0.094 0.846 0.357 0.358 0.462 0.898 0.727 1.482 0.727s1.125-0.265 1.482-0.727c0.204-0.264 0.524-0.395 0.846-0.357v4.356c0 0.046-0.049 0.073-0.087 0.049zM30.724 18.333c0.165 0.241 0.207 0.539 0.117 0.817s-0.3 0.494-0.575 0.592c-0.73 0.262-1.217 0.932-1.24 1.707-0.008 0.273-0.128 0.518-0.337 0.692-0.235 0.195-0.554 0.269-0.861 0.179-0.745-0.217-1.532 0.039-2.007 0.652-0.179 0.231-0.449 0.363-0.741 0.363s-0.562-0.132-0.741-0.363c-0.362-0.468-0.907-0.729-1.476-0.729-0.176 0-0.355 0.025-0.531 0.076-0.311 0.090-0.628 0.015-0.861-0.179-0.209-0.174-0.329-0.419-0.337-0.692-0.023-0.775-0.51-1.445-1.241-1.707-0.275-0.099-0.484-0.314-0.575-0.592s-0.048-0.576 0.117-0.817c0.437-0.641 0.437-1.469 0-2.11-0.165-0.241-0.207-0.539-0.117-0.817s0.3-0.494 0.575-0.592c0.73-0.262 1.217-0.932 1.241-1.707 0.009-0.292 0.149-0.558 0.386-0.729s0.532-0.223 0.813-0.141c0.744 0.217 1.532-0.039 2.007-0.652 0.179-0.231 0.449-0.364 0.741-0.364s0.562 0.132 0.741 0.363c0.475 0.613 1.262 0.869 2.007 0.652 0.28-0.082 0.577-0.030 0.813 0.141s0.377 0.438 0.386 0.729c0.023 0.775 0.51 1.446 1.241 1.707 0.275 0.099 0.484 0.314 0.575 0.592s0.048 0.576-0.117 0.817c-0.437 0.641-0.437 1.47 0 2.111z"></path>
<path d="M25.079 13.349c-2.166 0-3.928 1.762-3.928 3.928s1.762 3.928 3.928 3.928c2.166 0 3.928-1.762 3.928-3.928s-1.762-3.928-3.928-3.928zM25.079 20.268c-1.649 0-2.991-1.342-2.991-2.991s1.342-2.991 2.991-2.991 2.991 1.342 2.991 2.991-1.342 2.991-2.991 2.991z"></path>
</symbol>
<symbol id="validity" viewBox="0 0 32 32">
<path d="M15.807 31.333c-0.053 0-0.104-0.016-0.153-0.047l-11.573-7.52c-0.040-0.027-0.071-0.062-0.093-0.107-0.027-0.044-0.040-0.091-0.040-0.14v-4.047c0-0.080 0.029-0.149 0.087-0.207 0.058-0.053 0.127-0.082 0.207-0.087 0.076 0.004 0.142 0.033 0.2 0.087 0.058 0.058 0.087 0.127 0.087 0.207v3.893l11.28 7.333 11.287-7.333v-3.893c0-0.080 0.029-0.149 0.087-0.207 0.053-0.053 0.12-0.082 0.2-0.087 0.080 0.004 0.149 0.033 0.207 0.087 0.053 0.058 0.082 0.127 0.087 0.207v4.047c0 0.049-0.013 0.096-0.040 0.14-0.022 0.044-0.053 0.080-0.093 0.107l-11.573 7.52c-0.049 0.031-0.102 0.047-0.16 0.047z"></path>
<path d="M26.926 19.474c0-0.125 0.047-0.237 0.135-0.325 0.084-0.084 0.191-0.129 0.309-0.135h0.019c0.088 0.005 0.17 0.031 0.242 0.077l0.069 0.053 0.009 0.009c0.080 0.087 0.124 0.193 0.131 0.311l0.001 0.010-0.001 4.046c0 0.077-0.021 0.148-0.058 0.214-0.035 0.069-0.085 0.128-0.15 0.171l-0.001 0.001-11.575 7.521c-0.076 0.048-0.16 0.073-0.249 0.073-0.088 0-0.17-0.026-0.243-0.073l-0.001-0.001-11.575-7.521c-0.065-0.043-0.116-0.101-0.15-0.171l0.001-0.001c-0.037-0.066-0.058-0.138-0.058-0.214v-4.046c0-0.125 0.047-0.237 0.135-0.325l0.005-0.005 0.069-0.053c0.072-0.046 0.153-0.073 0.242-0.077h0.020c0.087 0.005 0.166 0.032 0.236 0.078l0.066 0.053 0.005 0.005 0.059 0.070c0.050 0.074 0.077 0.161 0.077 0.255v3.803l11.113 7.225 11.12-7.225v-3.803zM27.26 23.457l-0.075 0.049-11.378 7.393-11.447-7.441v-3.984c0-0.033-0.010-0.060-0.035-0.086-0.027-0.025-0.054-0.035-0.085-0.039-0.037 0.004-0.066 0.016-0.092 0.039-0.025 0.026-0.035 0.053-0.035 0.086v4.046c0 0.008 0.001 0.017 0.004 0.026l0.012 0.029 0.003 0.005 0.003 0.006c0.010 0.019 0.022 0.032 0.036 0.042l11.605 7.535c0.011 0.003 0.020 0.005 0.030 0.005 0.026 0 0.048-0.007 0.070-0.021l11.57-7.519c0.015-0.010 0.027-0.022 0.037-0.042l0.003-0.006 0.003-0.005c0.012-0.020 0.016-0.038 0.016-0.055v-4.040c-0.003-0.038-0.016-0.068-0.039-0.094-0.025-0.022-0.053-0.033-0.088-0.036-0.036 0.004-0.061 0.015-0.082 0.036-0.027 0.027-0.038 0.055-0.038 0.089v3.984z"></path>
<path d="M27.38 11.66c-0.080 0-0.147-0.029-0.2-0.087-0.058-0.053-0.087-0.12-0.087-0.2v-6.653c-0.9-0.067-1.747-0.46-2.38-1.093-0.64-0.64-1.027-1.48-1.093-2.38h-15.62c-0.067 0.9-0.453 1.74-1.093 2.38-0.64 0.633-1.48 1.027-2.38 1.093v6.653c0 0.080-0.029 0.147-0.087 0.2-0.058 0.058-0.124 0.087-0.2 0.087-0.080 0-0.149-0.029-0.207-0.087-0.058-0.053-0.087-0.12-0.087-0.2v-6.947c0-0.080 0.029-0.149 0.087-0.207 0.058-0.053 0.127-0.080 0.207-0.080 0.84 0 1.647-0.34 2.247-0.933 0.593-0.6 0.933-1.407 0.933-2.253 0-0.076 0.029-0.142 0.087-0.2 0.053-0.058 0.12-0.087 0.2-0.087h16.207c0.076 0 0.142 0.029 0.2 0.087s0.087 0.124 0.087 0.2c0 0.847 0.34 1.653 0.933 2.253 0.6 0.593 1.407 0.933 2.247 0.933 0.080 0 0.149 0.027 0.207 0.080 0.053 0.058 0.082 0.127 0.087 0.207v6.947c-0.004 0.080-0.033 0.147-0.087 0.2-0.058 0.058-0.127 0.087-0.207 0.087z"></path>
<path d="M24.033 0.953c-0-0.027-0.009-0.053-0.038-0.082s-0.055-0.038-0.082-0.038h-16.207c-0.034 0-0.056 0.010-0.078 0.033l-0.005 0.005c-0.029 0.029-0.038 0.055-0.038 0.082 0 0.892-0.358 1.74-0.982 2.37l-0.001 0.001c-0.63 0.623-1.478 0.982-2.363 0.982-0.038 0-0.066 0.011-0.092 0.035-0.025 0.026-0.034 0.052-0.035 0.085v6.947c0 0.017 0.002 0.032 0.008 0.044l0.025 0.034 0.005 0.004v0.001c0.027 0.027 0.054 0.038 0.089 0.038 0.027-0 0.053-0.009 0.082-0.038l0.005-0.005c0.023-0.021 0.033-0.043 0.033-0.077v-6.808l0.154-0.011c0.806-0.060 1.562-0.394 2.158-0.935l0.117-0.111c0.612-0.612 0.981-1.414 1.045-2.274l0.011-0.154h15.93l0.012 0.154c0.064 0.86 0.433 1.663 1.045 2.275 0.605 0.605 1.415 0.981 2.274 1.045l0.154 0.011v6.808c0 0.017 0.002 0.032 0.008 0.044l0.025 0.034 0.005 0.004 0.005 0.005c0.021 0.023 0.043 0.033 0.077 0.033s0.061-0.011 0.089-0.038c0.022-0.022 0.035-0.049 0.038-0.089v-6.934c-0.003-0.038-0.016-0.068-0.039-0.094-0.025-0.021-0.051-0.032-0.087-0.032-0.885 0-1.734-0.358-2.364-0.982l-0.001-0.001c-0.623-0.63-0.982-1.479-0.982-2.37zM24.367 0.953c0 0.801 0.322 1.565 0.884 2.135l0.109 0.103c0.556 0.5 1.276 0.783 2.021 0.783 0.091 0 0.175 0.024 0.249 0.070l0.071 0.054 0.009 0.009c0.080 0.087 0.124 0.193 0.131 0.311l0.001 0.009h-0.001v6.956c-0.007 0.118-0.051 0.224-0.135 0.309-0.088 0.088-0.199 0.135-0.324 0.135-0.121 0-0.229-0.045-0.313-0.131v0.001l-0.010-0.010v-0.001c-0.086-0.084-0.131-0.192-0.131-0.312v-6.502c-0.882-0.101-1.706-0.502-2.331-1.126-0.631-0.631-1.027-1.45-1.127-2.331h-15.318c-0.1 0.881-0.495 1.7-1.126 2.331l-0.001 0.001c-0.631 0.624-1.449 1.025-2.331 1.126v6.502c0 0.123-0.047 0.233-0.136 0.318-0.086 0.086-0.194 0.136-0.317 0.136s-0.232-0.046-0.32-0.131c-0.002-0.001-0.004-0.002-0.005-0.004l0.001-0.001c-0.090-0.085-0.136-0.194-0.136-0.318v-6.947c0-0.125 0.047-0.236 0.135-0.324l0.005-0.005c0.089-0.082 0.199-0.124 0.32-0.124 0.795-0 1.559-0.322 2.129-0.885 0.562-0.569 0.884-1.334 0.884-2.135 0-0.121 0.048-0.227 0.131-0.313 0.001-0.002 0.003-0.004 0.005-0.005v0.001c0.085-0.090 0.194-0.136 0.318-0.136h16.207c0.124 0 0.232 0.049 0.318 0.135s0.135 0.194 0.135 0.318z"></path>
<path d="M8.793 19.76h-8.027c-0.049 0-0.096-0.011-0.14-0.033-0.040-0.022-0.073-0.053-0.1-0.093-0.027-0.044-0.040-0.091-0.040-0.14s0.013-0.096 0.040-0.14l1.687-3.933-1.733-3.933c-0.027-0.044-0.040-0.091-0.040-0.14s0.013-0.096 0.040-0.14c0.031-0.044 0.073-0.080 0.127-0.107 0.049-0.022 0.102-0.029 0.16-0.020h8.027c0.080 0 0.149 0.029 0.207 0.087 0.053 0.058 0.080 0.127 0.080 0.207 0 0.076-0.027 0.142-0.080 0.2-0.058 0.058-0.127 0.087-0.207 0.087h-7.587l1.587 3.647c0.027 0.076 0.027 0.153 0 0.233l-1.587 3.64h7.587c0.080 0.004 0.149 0.033 0.207 0.087 0.053 0.058 0.080 0.127 0.080 0.207s-0.027 0.147-0.080 0.2c-0.058 0.058-0.127 0.087-0.207 0.087z"></path>
<path d="M0.273 11.346c0-0.081 0.023-0.157 0.064-0.225l0.003-0.005 0.003-0.005c0.049-0.069 0.113-0.122 0.189-0.16l0.005-0.003c0.074-0.034 0.153-0.043 0.233-0.035h8.023c0.125 0 0.236 0.047 0.324 0.135l0.005 0.005c0.082 0.089 0.124 0.199 0.124 0.32 0 0.119-0.044 0.226-0.124 0.313l-0.005 0.005c-0.088 0.088-0.199 0.135-0.324 0.135h-7.333l1.49 3.424c0.040 0.112 0.039 0.228 0.001 0.341l-0.003 0.007-0.003 0.007-1.485 3.406h7.342c0.088 0.005 0.17 0.032 0.242 0.078l0.069 0.053 0.005 0.005 0.005 0.005c0.082 0.089 0.124 0.199 0.124 0.32s-0.042 0.231-0.129 0.318c-0.088 0.088-0.199 0.135-0.324 0.135h-8.027c-0.075 0-0.148-0.017-0.215-0.051l-0.006-0.003c-0.064-0.036-0.117-0.086-0.158-0.146l-0.005-0.007 0.143-0.086-0.143 0.085c-0.041-0.069-0.064-0.144-0.064-0.225 0-0.074 0.020-0.143 0.054-0.206l1.658-3.867-1.704-3.867 0.001-0.001c-0.035-0.064-0.055-0.133-0.055-0.207zM0.611 11.372l0.012 0.029 0.005 0.009 0.005 0.009 1.762 4-0.029 0.066-1.691 3.944-0.006 0.009c-0.012 0.020-0.016 0.038-0.016 0.055s0.004 0.032 0.015 0.051c0.011 0.015 0.023 0.026 0.036 0.034 0.021 0.010 0.041 0.014 0.063 0.014h8.027c0.035-0 0.061-0.011 0.089-0.038 0.020-0.020 0.031-0.043 0.031-0.082 0-0.037-0.011-0.063-0.033-0.088-0.013-0.011-0.026-0.020-0.040-0.027l-0.056-0.012h-7.832l1.684-3.864c0.014-0.045 0.013-0.083 0-0.12l-1.684-3.868h7.841c0.033-0 0.059-0.010 0.085-0.035 0.025-0.028 0.035-0.054 0.035-0.085-0-0.038-0.012-0.066-0.035-0.092-0.026-0.025-0.052-0.034-0.085-0.035l-8.052-0.002c-0.028-0.004-0.047-0.001-0.064 0.007-0.026 0.014-0.044 0.029-0.057 0.046-0.010 0.018-0.014 0.034-0.014 0.050 0 0.008 0.001 0.017 0.004 0.026z"></path>
<path d="M30.853 19.76h-8.020c-0.080 0-0.149-0.029-0.207-0.087-0.058-0.053-0.087-0.12-0.087-0.2s0.029-0.149 0.087-0.207c0.058-0.053 0.127-0.082 0.207-0.087h7.587l-1.587-3.64c-0.031-0.080-0.031-0.158 0-0.233l1.56-3.647h-4.84c-0.080 0-0.149-0.029-0.207-0.087-0.058-0.053-0.087-0.12-0.087-0.2s0.029-0.149 0.087-0.207c0.058-0.053 0.127-0.082 0.207-0.087h5.3c0.049 0 0.096 0.011 0.14 0.033 0.044 0.027 0.080 0.060 0.107 0.1s0.042 0.084 0.047 0.133c0.004 0.049-0.004 0.096-0.027 0.14l-1.713 3.933 1.74 3.933c0.018 0.049 0.024 0.096 0.020 0.14-0.004 0.049-0.020 0.096-0.047 0.14-0.027 0.040-0.060 0.071-0.1 0.093-0.044 0.022-0.091 0.033-0.14 0.033h-0.027z"></path>
<path d="M30.853 10.913c0.056 0 0.111 0.010 0.163 0.029l0.051 0.022 0.006 0.003 0.005 0.003c0.064 0.038 0.118 0.088 0.16 0.15 0.042 0.064 0.067 0.134 0.074 0.21 0.007 0.077-0.007 0.152-0.040 0.221l-1.684 3.867 1.715 3.877c0.025 0.068 0.036 0.139 0.029 0.212l0.001 0.001c-0.007 0.075-0.032 0.146-0.070 0.211l-0.004 0.007c-0.041 0.061-0.093 0.111-0.158 0.146l-0.007 0.003c-0.067 0.034-0.14 0.051-0.215 0.051h-8.046c-0.123 0-0.232-0.046-0.32-0.131l-0.001 0.001c-0.001-0.001-0.001-0.002-0.002-0.003s-0.002-0.001-0.003-0.001l0.001-0.001c-0.089-0.085-0.136-0.194-0.136-0.317 0-0.125 0.047-0.236 0.135-0.324l0.005-0.005c0.087-0.080 0.193-0.124 0.311-0.13l0.010-0.001 7.332 0.001-1.488-3.413c-0.046-0.118-0.047-0.24 0.001-0.357l0.001-0.003 1.46-3.414h-4.587c-0.123-0-0.232-0.046-0.32-0.131-0.001-0.001-0.003-0.003-0.005-0.004-0.089-0.085-0.135-0.195-0.135-0.318 0-0.125 0.047-0.237 0.135-0.325l0.005-0.005 0.069-0.053c0.072-0.046 0.153-0.073 0.242-0.077h5.309zM25.435 11.417l0.025 0.034 0.005 0.005c0.027 0.027 0.054 0.038 0.089 0.038h5.093l-1.66 3.879c-0.013 0.033-0.014 0.065 0.001 0.105l1.687 3.869h-7.835c-0.040 0.003-0.071 0.016-0.098 0.041-0.025 0.026-0.035 0.052-0.035 0.085 0 0.017 0.002 0.031 0.008 0.044l0.025 0.034 0.005 0.005c0.027 0.027 0.054 0.038 0.089 0.038h8.046c0.021 0 0.041-0.005 0.061-0.014 0.013-0.008 0.025-0.018 0.036-0.034 0.014-0.023 0.021-0.045 0.023-0.066v-0.002c0.002-0.016-0-0.037-0.011-0.066l-1.765-3.99 0.029-0.067 1.717-3.941 0.008-0.025c0.002-0.008 0.002-0.017 0.001-0.025-0.002-0.022-0.009-0.040-0.020-0.056s-0.027-0.032-0.049-0.046c-0.020-0.009-0.039-0.013-0.059-0.013h-5.29l-0.057 0.012c-0.016 0.007-0.031 0.017-0.045 0.029-0.025 0.026-0.034 0.053-0.034 0.086 0 0.017 0.002 0.031 0.008 0.044z"></path>
<path d="M15.813 23.813c-1.353 0-2.687-0.327-3.88-0.953-1.2-0.627-2.227-1.527-3-2.64-0.773-1.107-1.267-2.387-1.44-3.727s-0.020-2.7 0.447-3.967c0.467-1.273 1.233-2.407 2.233-3.313 1-0.913 2.207-1.567 3.513-1.907s2.673-0.367 3.993-0.067c1.32 0.307 2.54 0.92 3.573 1.793 0.027 0.027 0.049 0.056 0.067 0.087 0.018 0.036 0.029 0.073 0.033 0.113 0 0.036-0.004 0.073-0.013 0.113-0.013 0.036-0.033 0.067-0.060 0.093-0.022 0.031-0.051 0.056-0.087 0.073s-0.071 0.027-0.107 0.027c-0.040 0.004-0.078 0-0.113-0.013-0.036-0.009-0.069-0.027-0.1-0.053-1.353-1.153-3.060-1.807-4.84-1.86-1.78-0.047-3.527 0.513-4.947 1.587-1.413 1.080-2.42 2.607-2.853 4.333s-0.26 3.547 0.487 5.167c0.747 1.613 2.027 2.927 3.62 3.72s3.413 1.013 5.147 0.633c1.74-0.387 3.3-1.347 4.413-2.733 1.113-1.393 1.727-3.12 1.727-4.9 0-0.209 0-0.413 0-0.613-0.009-0.080 0.013-0.151 0.067-0.213s0.118-0.096 0.193-0.1c0.080-0.009 0.151 0.013 0.213 0.067s0.096 0.12 0.1 0.2v0.66c0 2.227-0.887 4.36-2.46 5.933-1.567 1.573-3.7 2.46-5.927 2.46z"></path>
<path d="M24.033 14.769c-0.002-0.033-0.013-0.058-0.042-0.083s-0.053-0.031-0.087-0.027l-0.008 0.001c-0.026 0.002-0.050 0.011-0.077 0.042-0.024 0.028-0.031 0.053-0.027 0.087l0.001 0.009v0.622c-0 1.818-0.626 3.582-1.763 5.004v0.001c-1.137 1.417-2.731 2.397-4.507 2.792h-0.001c-1.77 0.388-3.629 0.163-5.256-0.647s-2.935-2.152-3.697-3.8c-0.762-1.654-0.939-3.513-0.497-5.277s1.47-3.322 2.913-4.425l0.001-0.001c1.45-1.096 3.234-1.668 5.051-1.62h0.001c1.818 0.054 3.561 0.722 4.943 1.9h0.001l0.032 0.018 0.009 0.003 0.009 0.003c0.009 0.003 0.021 0.006 0.036 0.004l0.010-0.001h0.009c0.007 0 0.017-0.002 0.032-0.009 0.012-0.006 0.020-0.013 0.025-0.021l0.008-0.011 0.010-0.010c0.008-0.008 0.012-0.017 0.016-0.027 0.004-0.020 0.006-0.038 0.007-0.055-0.003-0.015-0.007-0.028-0.013-0.042-0.009-0.015-0.020-0.030-0.034-0.045-1.012-0.853-2.205-1.451-3.495-1.751v-0.001c-1.293-0.294-2.632-0.267-3.913 0.066s-2.463 0.973-3.443 1.868v0.001c-0.919 0.833-1.637 1.862-2.1 3.015l-0.089 0.232c-0.457 1.241-0.608 2.575-0.438 3.888s0.654 2.568 1.411 3.652v0.001c0.71 1.023 1.639 1.862 2.722 2.469l0.219 0.118c1.169 0.614 2.476 0.934 3.803 0.934 2.182-0 4.273-0.869 5.809-2.411v-0.001c1.542-1.542 2.411-3.633 2.411-5.815v-0.651zM24.367 15.42c0 2.271-0.904 4.446-2.508 6.051-1.598 1.605-3.774 2.509-6.045 2.509-1.38 0-2.74-0.333-3.957-0.973v0.001c-1.147-0.599-2.139-1.444-2.909-2.482l-0.151-0.21c-0.789-1.129-1.292-2.434-1.469-3.801s-0.020-2.754 0.456-4.046c0.476-1.299 1.258-2.454 2.277-3.379 1.020-0.932 2.251-1.598 3.584-1.945s2.726-0.374 4.072-0.068h0.001c1.262 0.293 2.434 0.861 3.443 1.665l0.2 0.163 0.005 0.005 0.005 0.005c0.036 0.037 0.068 0.077 0.093 0.122l0.005 0.008v0.001c0.027 0.053 0.044 0.11 0.050 0.169l0.001 0.009v0.009c0 0.049-0.006 0.1-0.017 0.15l-0.003 0.011-0.004 0.011c-0.018 0.049-0.047 0.092-0.081 0.131l0.001 0.001c-0.039 0.054-0.089 0.096-0.148 0.126-0.051 0.025-0.106 0.040-0.163 0.043-0.058 0.006-0.115 0-0.171-0.018v0.001c-0.063-0.016-0.12-0.047-0.168-0.088l-0.253-0.206c-1.281-1-2.851-1.565-4.484-1.614v-0.001c-1.742-0.046-3.451 0.503-4.841 1.553-1.383 1.057-2.368 2.551-2.792 4.241s-0.254 3.47 0.477 5.056l0.143 0.293c0.745 1.445 1.938 2.62 3.4 3.348 1.559 0.776 3.34 0.992 5.036 0.62l0.317-0.077c1.575-0.42 2.981-1.326 4.002-2.598l0.199-0.259c0.964-1.316 1.491-2.904 1.492-4.536v-0.613h0.001c-0.009-0.12 0.027-0.23 0.105-0.322s0.181-0.147 0.301-0.157v-0.001c0.127-0.014 0.244 0.023 0.34 0.106s0.151 0.191 0.158 0.317l0.001 0.009v0.66z"></path>
<path d="M15.773 20.34c-0.433-0.007-0.853-0.18-1.16-0.487l-3.213-3.213c-0.307-0.307-0.48-0.72-0.487-1.153 0-0.218 0.042-0.427 0.127-0.627s0.204-0.378 0.36-0.533c0.32-0.3 0.74-0.473 1.18-0.473 0.433 0 0.86 0.173 1.173 0.473l2.020 1.96 5.587-5.587c0.32-0.307 0.74-0.473 1.18-0.473s0.86 0.167 1.173 0.473c0.156 0.156 0.278 0.336 0.367 0.54 0.080 0.204 0.12 0.416 0.12 0.633 0 0.222-0.040 0.436-0.12 0.64-0.089 0.2-0.211 0.378-0.367 0.533l-6.767 6.773c-0.151 0.16-0.329 0.287-0.533 0.38-0.204 0.089-0.418 0.136-0.64 0.14zM12.56 14.38c-0.28 0-0.553 0.107-0.76 0.307-0.2 0.193-0.32 0.467-0.327 0.747 0 0.142 0.027 0.28 0.080 0.413 0.058 0.133 0.138 0.251 0.24 0.353l3.207 3.213c0.207 0.2 0.487 0.307 0.773 0.307s0.56-0.107 0.767-0.307l6.767-6.767c0.102-0.102 0.18-0.218 0.233-0.347 0.058-0.133 0.087-0.273 0.087-0.42 0-0.142-0.029-0.28-0.087-0.413-0.053-0.133-0.131-0.251-0.233-0.353-0.207-0.2-0.48-0.307-0.767-0.307s-0.56 0.107-0.767 0.307l-5.787 5.787c-0.058 0.053-0.124 0.080-0.2 0.080-0.080 0-0.149-0.027-0.207-0.080l-2.247-2.233c-0.102-0.102-0.22-0.18-0.353-0.233s-0.273-0.080-0.42-0.080v0.027z"></path>
<path d="M24.033 11.873c0-0.195-0.035-0.383-0.106-0.566l-0.066-0.135c-0.071-0.13-0.16-0.247-0.264-0.352l-0.11-0.098c-0.266-0.213-0.599-0.328-0.947-0.328-0.397 0-0.776 0.15-1.065 0.427l-5.7 5.7-0.118-0.114-2.020-1.96c-0.283-0.271-0.668-0.426-1.058-0.426-0.394 0-0.773 0.154-1.062 0.424-0.141 0.141-0.248 0.301-0.324 0.48s-0.113 0.366-0.113 0.562c0.007 0.39 0.163 0.761 0.438 1.036l3.213 3.214c0.274 0.274 0.652 0.43 1.042 0.437 0.199-0.004 0.39-0.046 0.574-0.126 0.184-0.084 0.343-0.198 0.479-0.341l0.003-0.004 6.767-6.773 0.1-0.11c0.094-0.113 0.171-0.238 0.232-0.374 0.070-0.183 0.105-0.373 0.105-0.572zM23.46 11.88c0-0.119-0.024-0.235-0.073-0.348l-0.002-0.004c-0.045-0.111-0.109-0.21-0.195-0.296l-0.068-0.060c-0.165-0.13-0.368-0.2-0.583-0.2-0.245 0-0.476 0.091-0.651 0.26l-5.79 5.789c-0.087 0.080-0.193 0.124-0.312 0.124-0.121-0-0.231-0.042-0.32-0.124l-0.005-0.004-2.246-2.234c-0.086-0.086-0.186-0.152-0.298-0.197-0.062-0.025-0.126-0.042-0.191-0.053v0.012h-0.167c-0.238 0-0.469 0.091-0.644 0.26-0.168 0.163-0.27 0.395-0.276 0.631 0.001 0.119 0.023 0.235 0.068 0.347 0.037 0.084 0.084 0.161 0.141 0.23l0.062 0.068 3.204 3.212 0.068 0.059c0.165 0.13 0.374 0.201 0.589 0.201 0.245 0 0.477-0.091 0.651-0.26l6.764-6.765c0.087-0.087 0.153-0.184 0.197-0.292l0.001-0.003c0.049-0.112 0.073-0.23 0.073-0.353zM23.794 11.88c0 0.168-0.034 0.329-0.1 0.483l0.001 0.001c-0.062 0.15-0.152 0.283-0.27 0.4l-6.768 6.769c-0.239 0.231-0.554 0.353-0.883 0.353-0.327 0-0.65-0.122-0.889-0.353l-0.002-0.002-3.207-3.214c-0.117-0.117-0.209-0.253-0.275-0.405l-0.002-0.005c-0.061-0.153-0.092-0.312-0.092-0.475v-0.004c0.007-0.283 0.113-0.56 0.295-0.774l0.083-0.089c0.197-0.191 0.447-0.306 0.709-0.341v-0.038h0.167c0.167 0 0.328 0.030 0.482 0.092s0.291 0.152 0.409 0.27l2.242 2.229c0.026 0.024 0.055 0.036 0.094 0.036 0.032 0 0.059-0.010 0.087-0.036l5.784-5.784c0.239-0.231 0.554-0.354 0.883-0.354 0.287 0 0.564 0.094 0.789 0.272l0.093 0.081 0.002 0.002c0.117 0.117 0.207 0.252 0.268 0.405l0.044 0.117c0.038 0.118 0.057 0.239 0.057 0.363zM24.366 11.873c0 0.243-0.044 0.477-0.132 0.701l-0.003 0.006c-0.097 0.219-0.231 0.414-0.401 0.584l-0.001-0.001-6.763 6.77c-0.166 0.176-0.362 0.315-0.585 0.417l-0.003 0.001c-0.224 0.098-0.459 0.149-0.703 0.154h-0.006c-0.475-0.007-0.937-0.197-1.275-0.535l-3.213-3.214c-0.338-0.338-0.528-0.793-0.536-1.269v-0.003c0-0.24 0.047-0.471 0.14-0.691s0.225-0.415 0.396-0.586l0.003-0.004c0.35-0.328 0.81-0.518 1.294-0.518 0.417 0 0.828 0.145 1.154 0.402l0.134 0.117 0.001 0.001 1.902 1.845 5.473-5.473c0.351-0.337 0.813-0.52 1.296-0.52 0.422 0 0.829 0.14 1.155 0.402l0.135 0.119 0.001 0.001c0.128 0.128 0.235 0.271 0.322 0.429l0.080 0.162 0.003 0.006c0.087 0.224 0.131 0.455 0.131 0.694z"></path>
</symbol>
<symbol id="chevron-left" viewBox="0 0 32 32">
<path d="M21 32l3-3-13-13 13-13-3-3-16 16 16 16z"></path>
</symbol>
<symbol id="chevron-right" viewBox="0 0 32 32">
<path d="M11 0l-3 3 13 13-13 13 3 3 16-16-16-16z"></path>
</symbol>
<symbol id="chevron-down" viewBox="0 0 32 32">
<path d="M32 11l-3-3-13 13-13-13-3 3 16 16 16-16z"></path>
</symbol>
<symbol id="plus" viewBox="0 0 24 24">
<path d="M5 13h6v6c0 0.552 0.448 1 1 1s1-0.448 1-1v-6h6c0.552 0 1-0.448 1-1s-0.448-1-1-1h-6v-6c0-0.552-0.448-1-1-1s-1 0.448-1 1v6h-6c-0.552 0-1 0.448-1 1s0.448 1 1 1z"></path>
</symbol>
<symbol id="minus" viewBox="0 0 24 24">
<path d="M5 13h14c0.552 0 1-0.448 1-1s-0.448-1-1-1h-14c-0.552 0-1 0.448-1 1s0.448 1 1 1z"></path>
</symbol>
<symbol id="home" viewBox="0 0 32 32">
<path d="M5.333 28v-16l10.667-8 10.667 8v16h-9v-8.333h-3.333v8.333zM7.333 26h5v-8.333h7.333v8.333h5v-13l-8.667-6.5-8.667 6.5z"></path>
</symbol>
<symbol id="tiles" viewBox="0 0 32 32">
<path d="M0 0h6.957v6.956h-6.957v-6.956z"></path>
<path d="M0 12.522h6.957v6.957h-6.957v-6.957z"></path>
<path d="M0 25.043h6.957v6.956h-6.957v-6.956z"></path>
<path d="M12.522 0h6.956v6.956h-6.956v-6.956z"></path>
<path d="M12.522 12.522h6.956v6.957h-6.956v-6.957z"></path>
<path d="M12.522 25.043h6.956v6.956h-6.956v-6.956z"></path>
<path d="M25.044 0h6.956v6.956h-6.956v-6.956z"></path>
<path d="M25.044 12.522h6.956v6.957h-6.956v-6.957z"></path>
<path d="M25.044 25.043h6.956v6.956h-6.956v-6.956z"></path>
</symbol>
<symbol id="list" viewBox="0 0 32 32">
<path d="M0 0h6.956v6.956h-6.956v-6.956z"></path>
<path d="M0 12.522h6.956v6.957h-6.956v-6.957z"></path>
<path d="M0 25.043h6.956v6.956h-6.956v-6.956z"></path>
<path d="M12.522 0h19.478v6.956h-19.478v-6.956z"></path>
<path d="M12.522 12.522h19.478v6.957h-19.478v-6.957z"></path>
<path d="M12.522 25.043h19.478v6.956h-19.478v-6.956z"></path>
</symbol>
<symbol id="filter" viewBox="0 0 32 32">
<path d="M14.629 31.999v-10.056h2.743v3.657h14.627v2.743h-14.627v3.657zM0.001 28.342v-2.743h10.056v2.743zM7.315 21.028v-3.657h-7.314v-2.743h7.314v-3.657h2.743v10.056zM14.629 17.371v-2.743h17.37v2.743zM21.942 10.058v-10.056h2.743v3.657h7.314v2.743h-7.314v3.657zM0.001 6.401v-2.743h17.37v2.743z"></path>
</symbol>
<symbol id="x" viewBox="0 0 24 24">
<path d="M5.293 6.707l5.293 5.293-5.293 5.293c-0.391 0.391-0.391 1.024 0 1.414s1.024 0.391 1.414 0l5.293-5.293 5.293 5.293c0.391 0.391 1.024 0.391 1.414 0s0.391-1.024 0-1.414l-5.293-5.293 5.293-5.293c0.391-0.391 0.391-1.024 0-1.414s-1.024-0.391-1.414 0l-5.293 5.293-5.293-5.293c-0.391-0.391-1.024-0.391-1.414 0s-0.391 1.024 0 1.414z"></path>
</symbol>
<symbol id="egg" viewBox="0 0 32 32">
<path d="M16 0c-5.333 0-5.333 5.333-10.667 7.111-3.769 1.262-5.333 5.333-5.333 8.889 0 5.333 1.778 12.444 8.889 12.444 3.556 0 3.556 3.556 8.889 3.556s7.111-1.778 10.667-5.333c3.556-3.556 3.556-5.333 3.556-10.667s-1.778-5.333-5.333-8.889c-3.556-3.556-3.556-7.111-10.667-7.111zM16 2.667c3.858 0 4.587 1.013 6.222 3.236 0.676 0.942 1.458 1.991 2.56 3.093q1.316 1.298 2.258 2.098c1.938 1.689 2.293 1.991 2.293 4.907 0 5.209 0 6.009-2.773 8.782-3.449 3.413-4.551 4.551-8.782 4.551-1.991 0-2.667-0.569-3.751-1.44-1.102-0.889-2.596-2.116-5.138-2.116-5.404 0-6.222-6.133-6.222-9.778 0-2.4 0.889-5.493 3.502-6.364 3.164-1.049 4.853-3.040 6.204-4.64 1.404-1.653 2.044-2.329 3.627-2.329zM16 8.889c-3.929 0-7.111 3.182-7.111 7.111s3.182 7.111 7.111 7.111c3.929 0 7.111-3.182 7.111-7.111s-3.182-7.111-7.111-7.111zM16 12.444c-1.956 0-3.556 1.6-3.556 3.556h-1.778c0-2.933 2.4-5.333 5.333-5.333z"></path>
</symbol>
<symbol id="droplets" viewBox="0 0 32 32">
<path d="M11.253 1.316c2.827 6.436 6.169 11.129 9.884 13.28 3.164 1.813 7.182 0.764 8.996-2.364 1.796-3.129 0.711-7.147-2.453-8.978-3.716-2.151-9.547-2.684-16.427-1.938zM6.098 5.476c-3.236 4.427-5.102 8.498-5.102 11.84 0 2.844 2.293 5.156 5.102 5.156s5.084-2.311 5.084-5.156c0-3.342-1.902-7.484-5.084-11.84zM14.471 15.609c-0.587 5.458-0.16 9.902 1.511 12.8 1.422 2.471 4.551 3.324 6.987 1.92 2.436-1.422 3.253-4.551 1.831-7.004-1.671-2.898-5.387-5.529-10.329-7.716z"></path>
</symbol>
<symbol id="harvest" viewBox="0 0 19 32">
<path d="M12.351 12.441c2.642-2.643 2.643-6.927-0-9.57l0-0-2.871-2.871-2.871 2.871c-2.638 2.638-2.643 6.913-0.012 9.557l0.001 0.001 0.001 0.001 2.881 2.881 2.871-2.871zM8.515 10.52c-1.579-1.587-1.575-4.152 0.007-5.734l0.957-0.957 0.957 0.957c1.585 1.585 1.586 4.156-0 5.742l-0.957 0.957-0.965-0.965z"></path>
<path d="M12.261 19.817l0.009-0c3.695-0.049 6.668-3.053 6.678-6.749v-4.064l-4.078 0c-3.702 0.049-6.678 3.064-6.678 6.767v4.046h4.069zM10.899 15.771c-0-2.22 1.782-4.028 4.001-4.060h1.341v1.35l-0 0.052c-0.033 2.191-1.803 3.965-4.001 3.997h-1.341v-1.339z"></path>
<path d="M10.827 19.76v-4.069l-0-0.009c-0.049-3.702-3.064-6.678-6.767-6.678v-0h-4.060v3.989c0 1.795 0.713 3.516 1.982 4.785s2.99 1.982 4.785 1.982h4.060zM2.707 11.711h1.353c2.22-0 4.028 1.782 4.060 4.001v1.341h-1.353c-1.077 0-2.11-0.428-2.871-1.189l-0-0c-0.761-0.761-1.189-1.794-1.189-2.871v-1.282z"></path>
<path d="M8.121 23.892v4.060h4.046c3.737 0 6.767-3.030 6.767-6.767v-4.060h-4.064c-3.73 0.010-6.749 3.037-6.749 6.767zM10.827 23.892c0-2.238 1.811-4.054 4.050-4.060h1.35v1.354c0 2.242-1.818 4.060-4.060 4.060h-1.339v-1.353z"></path>
<path d="M10.827 27.938v-4.064c-0.010-3.73-3.037-6.749-6.767-6.749h-4.060v4.046c0 1.795 0.713 3.516 1.982 4.785s2.99 1.982 4.785 1.982h4.060zM2.707 19.832h1.353c2.238 0 4.054 1.811 4.060 4.050v1.35h-1.353c-1.077 0-2.11-0.428-2.871-1.189h-0c-0.761-0.762-1.189-1.794-1.189-2.871v-1.339z"></path>
<path d="M10.827 31.998v-18.934h-2.707v18.934h2.707z"></path>
</symbol>
<symbol id="energy" viewBox="0 0 32 32">
<path d="M22.667 2.667l-2.329 9.333h6.667l-16.302 17.333 3.644-14.667h-5.333l2.987-12z"></path>
</symbol>
<symbol id="trash" viewBox="0 0 32 32">
<path d="M21.32 4.733l0.307 1.627c0.107 0.507 0.507 0.88 1 0.947l0.147 0.013h4.253c0.533 0 0.973 0.44 0.973 1 0 0.507-0.373 0.92-0.84 0.987l-0.133 0.013h-22.053c-0.533 0-0.973-0.453-0.973-1 0-0.507 0.373-0.92 0.84-0.987l0.133-0.013h4.253c0.507 0 0.947-0.333 1.107-0.813l0.040-0.147 0.32-1.68c0.293-1.12 1.24-1.92 2.347-2l0.213-0.013h5.493c1.133 0 2.12 0.733 2.507 1.853zM19.893 7.32q-0.067-0.173-0.12-0.347l-0.053-0.227-0.293-1.56c-0.080-0.267-0.293-0.467-0.56-0.507l-0.107-0.013h-5.507c-0.28 0-0.52 0.16-0.627 0.373l-0.027 0.080-0.32 1.627q-0.053 0.293-0.16 0.573zM25.307 11.627c0.493 0.040 0.867 0.453 0.893 0.933l-0.013 0.28-0.413 5.133-0.44 5.013q-0.147 1.507-0.253 2.507c-0.24 2.32-1.747 3.747-4.013 3.787q-5.28 0.107-10.213 0c-2.2-0.053-3.68-1.493-3.933-3.773l-0.16-1.68-0.307-3.253-0.293-3.587-0.36-4.28c-0.040-0.56 0.36-1.040 0.907-1.080 0.48-0.040 0.92 0.293 1.027 0.787l0.040 0.387 0.32 4.027 0.36 4.16c0.16 1.813 0.293 3.267 0.413 4.293q0.213 1.96 2.027 2 4.893 0.107 10.133 0 1.907-0.027 2.12-2l0.173-1.68q0.067-0.773 0.147-1.693l0.36-4.107 0.427-5.253c0.040-0.507 0.44-0.893 0.92-0.92z"></path>
</symbol>
<symbol id="google" viewBox="0 0 32 32">
<path fill="#4285f4" d="M31.619 16.299c0-1.311-0.106-2.268-0.337-3.26h-14.97v5.917h8.787c-0.177 1.47-1.134 3.685-3.26 5.173l-0.030 0.198 4.734 3.667 0.328 0.033c3.012-2.782 4.748-6.874 4.748-11.729z"></path>
<path fill="#34a853" d="M16.312 31.89c4.305 0 7.919-1.417 10.559-3.862l-5.031-3.898c-1.347 0.939-3.154 1.594-5.528 1.594-4.217 0-7.796-2.781-9.071-6.626l-0.187 0.016-4.922 3.809-0.064 0.179c2.622 5.209 8.008 8.788 14.244 8.788z"></path>
<path fill="#fbbc05" d="M7.24 19.099c-0.336-0.992-0.531-2.055-0.531-3.154s0.195-2.162 0.514-3.154l-0.009-0.212-4.984-3.87-0.163 0.078c-1.081 2.161-1.701 4.588-1.701 7.158s0.62 4.996 1.701 7.157z"></path>
<path fill="#eb4335" d="M16.312 6.165c2.994 0 5.014 1.294 6.165 2.374l4.5-4.394c-2.764-2.569-6.36-4.146-10.665-4.146-6.236 0-11.622 3.579-14.244 8.788l5.156 4.004c1.293-3.845 4.872-6.626 9.089-6.626z"></path>
</symbol>
<symbol id="email" viewBox="0 0 32 32">
<path d="M30.666 4.001l1.333 1.333v21.332l-1.333 1.333h-29.332l-1.333-1.333v-21.332l1.333-1.333zM2.667 8.348v16.985h26.665v-16.985l-13.333 12.121zM27.217 6.667h-22.434l11.217 10.197z"></path>
</symbol>
<symbol id="user" viewBox="0 0 32 32">
<path d="M20.799 8.001c0-2.65-2.148-4.799-4.799-4.799s-4.799 2.149-4.799 4.799c0 2.651 2.148 4.799 4.799 4.799s4.799-2.149 4.799-4.799zM24 8.001c0 4.418-3.581 8-8 8s-8-3.582-8-8c0-4.418 3.581-8 8-8s8 3.582 8 8z"></path>
<path d="M16 17.599c7.069 0 12.799 5.73 12.799 12.799 0 0.884-0.717 1.601-1.601 1.601h-22.397c-0.884 0-1.601-0.717-1.601-1.601 0-7.069 5.73-12.799 12.799-12.799zM16 20.8c-4.756 0-8.703 3.458-9.465 7.997h18.93c-0.762-4.539-4.709-7.997-9.465-7.997z"></path>
</symbol>
<symbol id="pencil" viewBox="0 0 32 32">
<path d="M23.783 0.002c0.344 0 0.674 0.137 0.917 0.38l6.918 6.918c0.243 0.243 0.38 0.573 0.38 0.917s-0.137 0.674-0.38 0.917l-22.484 22.485c-0.243 0.243-0.573 0.38-0.917 0.38h-6.919c-0.716 0-1.297-0.581-1.297-1.297v-6.919c0-0.344 0.137-0.674 0.38-0.917l22.508-22.507c0.241-0.229 0.561-0.357 0.894-0.357zM29.836 29.405c0.716 0 1.297 0.581 1.297 1.297s-0.581 1.297-1.297 1.297h-14.701c-0.716 0-1.297-0.581-1.297-1.297s0.581-1.297 1.297-1.297h14.701zM2.595 24.321v5.084h5.084l15.998-15.999-5.084-5.084-15.999 15.999zM20.429 6.488l5.084 5.084 3.354-3.354-5.084-5.084-3.354 3.354z"></path>
</symbol>
<symbol id="phone" viewBox="0 0 32 32">
<path d="M9.476 1.333c0.479-0.004 0.953 0.079 1.403 0.242 0.439 0.16 0.845 0.396 1.202 0.695l0.036 0.031c0.364 0.313 0.669 0.69 0.9 1.113s0.384 0.884 0.451 1.359c0.001 0.005 0.001 0.009 0.002 0.014 0.039 0.295 0.086 0.588 0.141 0.88l0.021 0.11c0.050 0.255 0.107 0.509 0.17 0.761l0.027 0.108c0.065 0.252 0.136 0.503 0.213 0.751 0.088 0.284 0.184 0.565 0.288 0.843 0.129 0.345 0.21 0.705 0.241 1.070l0.003 0.035 0 0.002c0.028 0.379 0.002 0.76-0.077 1.132-0 0.001-0 0.001-0 0.002-0.080 0.371-0.211 0.729-0.392 1.064s-0.408 0.642-0.676 0.913c-0.002 0.002-0.003 0.004-0.005 0.005l-0.956 0.956c0.3 0.47 0.619 0.928 0.957 1.372l0.051 0.067c0.512 0.665 1.064 1.298 1.655 1.893l0.060 0.060c0.632 0.633 1.307 1.222 2.018 1.765l0.067 0.051c0.423 0.32 0.859 0.622 1.305 0.907l0.956-0.956c0.002-0.002 0.004-0.003 0.005-0.005 0.271-0.268 0.578-0.495 0.913-0.676s0.693-0.312 1.064-0.392l0.002-0c0.36-0.077 0.729-0.103 1.096-0.079l0.037 0.003c0.377 0.029 0.749 0.11 1.105 0.243 0.279 0.104 0.56 0.2 0.844 0.288s0.57 0.168 0.859 0.24l0.108 0.027c0.253 0.061 0.507 0.116 0.763 0.165s0.512 0.090 0.769 0.126l0.124 0.017c0.48 0.068 0.946 0.223 1.373 0.459 0.425 0.235 0.805 0.545 1.12 0.917 0.304 0.359 0.543 0.77 0.705 1.211l0.015 0.043 0 0c0.16 0.453 0.236 0.929 0.227 1.407v3.99h-0c0.002 0.555-0.112 1.105-0.335 1.614-0 0-0 0-0 0.001-0.223 0.509-0.55 0.968-0.96 1.345-0 0-0.001 0-0.001 0.001-0.41 0.376-0.895 0.663-1.424 0.841h-0c-0.528 0.179-1.087 0.244-1.64 0.195-0.008-0.001-0.017-0.002-0.025-0.003-1.073-0.117-2.138-0.296-3.19-0.537s-2.089-0.543-3.106-0.905c-1.017-0.362-2.012-0.782-2.979-1.26-0.966-0.477-1.904-1.010-2.809-1.597-0.841-0.535-1.652-1.115-2.429-1.738-0-0-0-0-0.001-0-0.779-0.625-1.525-1.292-2.231-2v-0c-0.707-0.707-1.374-1.451-1.999-2.231l-0.059-0.073c-0.602-0.756-1.162-1.543-1.68-2.357-0.588-0.909-1.123-1.851-1.602-2.822l-0-0c-0.479-0.972-0.9-1.972-1.262-2.993s-0.663-2.064-0.903-3.12l-0-0c-0.239-1.057-0.417-2.127-0.532-3.205-0.001-0.007-0.001-0.013-0.002-0.020-0.051-0.554 0.016-1.112 0.192-1.637l0.001-0.002c0.177-0.526 0.462-1.009 0.836-1.419h-0c0.374-0.41 0.83-0.738 1.338-0.963s1.058-0.341 1.613-0.341h3.997zM9.48 4.001l-4.033 0c-0.174 0.005-0.344 0.043-0.502 0.113-0 0-0 0-0.001 0-0.169 0.075-0.321 0.184-0.445 0.32-0 0-0 0-0.001 0.001-0.124 0.136-0.219 0.297-0.279 0.472s-0.080 0.359-0.065 0.539c0.103 0.969 0.263 1.931 0.479 2.882l0.020 0.090c0.214 0.925 0.479 1.837 0.796 2.731 0.327 0.923 0.708 1.827 1.14 2.705l0.041 0.082c0.423 0.85 0.893 1.675 1.409 2.471 0.002 0.003 0.004 0.007 0.006 0.010 0.454 0.714 0.943 1.404 1.468 2.067l0.106 0.133c0.529 0.66 1.091 1.292 1.685 1.893l0.12 0.12c0.637 0.638 1.31 1.24 2.013 1.804h-0c0.66 0.529 1.346 1.023 2.056 1.481l0.153 0.098c0.818 0.531 1.667 1.013 2.542 1.445s1.773 0.812 2.693 1.139c0.919 0.327 1.856 0.6 2.807 0.818h0c0.945 0.216 1.902 0.378 2.867 0.483 0.183 0.015 0.366-0.007 0.538-0.065l0.002-0.001c0.175-0.059 0.337-0.154 0.473-0.28s0.246-0.278 0.32-0.448c0.074-0.17 0.112-0.354 0.112-0.539v-4.006c0-0.011 0-0.022 0-0.033 0.004-0.163-0.022-0.324-0.075-0.476v-0c-0.054-0.153-0.136-0.295-0.241-0.419-0.104-0.123-0.23-0.226-0.373-0.305-0.14-0.077-0.294-0.129-0.456-0.152-0.341-0.045-0.68-0.1-1.018-0.164-0-0-0.001-0-0.001-0-0.342-0.065-0.681-0.139-1.018-0.223-0-0-0.001-0-0.001-0-0.337-0.084-0.672-0.178-1.003-0.281s-0.661-0.215-0.987-0.337c-0.001-0-0.002-0.001-0.003-0.001-0.117-0.044-0.242-0.072-0.369-0.082-0.126-0.009-0.253-0.001-0.377 0.025s-0.244 0.071-0.356 0.131c-0.111 0.060-0.213 0.135-0.302 0.224l-1.689 1.689c-0.425 0.425-1.080 0.513-1.602 0.217-0.882-0.501-1.729-1.062-2.536-1.676l-0-0c-0.806-0.615-1.571-1.283-2.288-2.001v-0c-0.717-0.717-1.385-1.482-2-2.288l-0-0c-0.614-0.806-1.175-1.654-1.676-2.536-0.297-0.522-0.208-1.178 0.217-1.602l1.689-1.689c0.088-0.090 0.164-0.191 0.223-0.302s0.104-0.231 0.131-0.356c0.026-0.123 0.035-0.25 0.026-0.376l-0.002-0.024c-0.011-0.12-0.038-0.236-0.080-0.347-0-0.001-0.001-0.002-0.001-0.003-0.122-0.326-0.234-0.655-0.337-0.987s-0.196-0.666-0.281-1.004c-0-0-0-0.001-0-0.001-0.084-0.337-0.158-0.676-0.223-1.018-0-0-0-0.001-0-0.001-0.064-0.337-0.118-0.676-0.163-1.017-0.023-0.16-0.074-0.313-0.15-0.453s-0.178-0.265-0.3-0.371c-0.122-0.105-0.262-0.186-0.411-0.241-0.151-0.055-0.311-0.083-0.471-0.081-0.004 0-0.009 0-0.013 0zM18.757 6.411c0.141-0.723 0.842-1.195 1.565-1.054 0.777 0.152 1.527 0.418 2.226 0.79s1.338 0.845 1.898 1.405c0.561 0.56 1.034 1.2 1.406 1.899s0.638 1.45 0.79 2.226c0.141 0.723-0.331 1.424-1.054 1.565s-1.424-0.331-1.565-1.054c-0.101-0.518-0.278-1.018-0.526-1.484s-0.564-0.893-0.936-1.265c-0-0-0.001-0.001-0.001-0.001-0.373-0.373-0.799-0.688-1.265-0.936s-0.966-0.425-1.484-0.526c-0.723-0.141-1.195-0.842-1.054-1.565zM18.741 1.186c0.081-0.732 0.741-1.26 1.473-1.179 1.492 0.166 2.946 0.583 4.3 1.233l0-0c1.354 0.65 2.588 1.524 3.651 2.585s1.938 2.294 2.59 3.647l0.030 0.063c0.635 1.335 1.043 2.766 1.208 4.235 0.082 0.732-0.444 1.392-1.176 1.475s-1.392-0.444-1.475-1.176c-0.134-1.194-0.469-2.356-0.99-3.438l-0-0c-0.521-1.082-1.222-2.068-2.072-2.917s-1.837-1.548-2.92-2.068l-0-0c-1.083-0.52-2.245-0.854-3.439-0.986-0.732-0.081-1.26-0.741-1.179-1.473z"></path>
</symbol>
<symbol id="store" viewBox="0 0 32 32">
<path d="M6.64 5.16h18.72l2.465 6.723v2.146c0 0.987-0.371 1.901-0.985 2.584v11.212h-21.68v-11.212c-0.614-0.684-0.985-1.597-0.985-2.584v-2.146zM21.42 16.613c-0.669 0.744-1.628 1.217-2.71 1.217s-2.041-0.472-2.71-1.217c-0.669 0.744-1.627 1.217-2.71 1.217s-2.041-0.472-2.71-1.217c-0.669 0.744-1.627 1.217-2.71 1.217-0.254 0-0.501-0.026-0.739-0.075v8.1h4.927v-5.913h7.884v5.913h4.927v-8.1c-0.238 0.049-0.485 0.075-0.739 0.075-1.082 0-2.041-0.472-2.71-1.217zM14.029 25.855h3.942v-3.942h-3.942zM22.405 13.044v0.985c0 1.046 0.807 1.83 1.725 1.83s1.725-0.784 1.725-1.83v-0.985zM25.429 11.073l-1.446-3.942h-15.967l-1.445 3.942zM6.145 13.044v0.985c0 1.046 0.807 1.83 1.725 1.83s1.725-0.784 1.725-1.83v-0.985zM11.565 13.044v0.985c0 1.046 0.807 1.83 1.725 1.83s1.725-0.784 1.725-1.83v-0.985zM16.985 13.044v0.985c0 1.046 0.807 1.83 1.725 1.83s1.725-0.784 1.725-1.83v-0.985z"></path>
</symbol>
<symbol id="motorcycle" viewBox="0 0 32 32">
<path d="M5.066 19.822c2.298 0 4.168 1.87 4.168 4.169s-1.87 4.168-4.168 4.168c-2.299 0-4.169-1.87-4.169-4.168s1.87-4.169 4.169-4.169zM5.066 26.227c1.233 0 2.237-1.004 2.237-2.237s-1.004-2.237-2.237-2.237c-1.234 0-2.237 1.003-2.237 2.237s1.004 2.237 2.237 2.237z"></path>
<path d="M27.831 22.72c0.7 0 1.271 0.57 1.271 1.271s-0.57 1.271-1.271 1.271c-0.701 0-1.271-0.57-1.271-1.271s0.57-1.271 1.271-1.271z"></path>
<path d="M5.066 22.72c0.701 0 1.271 0.57 1.271 1.271s-0.57 1.271-1.271 1.271c-0.701 0-1.271-0.57-1.271-1.271s0.57-1.271 1.271-1.271z"></path>
<path d="M12.446 3.841v8.863h5.206v1.932h-1.874v2.72h5.059v-7.894h-2.337v-1.932h6.813l4.483 12.787c1.31 0.704 2.203 2.087 2.203 3.675 0 2.298-1.87 4.168-4.168 4.168s-4.169-1.87-4.169-4.168c0-0.234 0.020-0.462 0.058-0.686h-13.513l-0.198-0.704c-0.621-2.205-2.653-3.745-4.943-3.745-1.369 0-2.658 0.535-3.628 1.506l-1.366-1.366c1.105-1.105 2.509-1.799 4.028-2.006v-2.355h-4.099v-10.794zM27.831 26.227c1.234 0 2.237-1.004 2.237-2.237 0-0.95-0.596-1.764-1.433-2.087q-0.029-0.012-0.059-0.022-0.021-0.007-0.042-0.014-0.030-0.010-0.060-0.019-0.023-0.006-0.046-0.013-0.028-0.008-0.057-0.015-0.026-0.006-0.051-0.012t-0.053-0.012-0.057-0.010q-0.025-0.004-0.049-0.008-0.032-0.004-0.064-0.008-0.022-0.003-0.044-0.005-0.036-0.003-0.074-0.006-0.018-0.001-0.036-0.002-0.055-0.003-0.111-0.003-0.066 0-0.132 0.004-0.024 0.002-0.049 0.004-0.039 0.003-0.078 0.008-0.032 0.004-0.063 0.008-0.026 0.004-0.053 0.008c-0.576 0.098-1.079 0.417-1.416 0.867q-0 0.001-0.001 0.001c-0.279 0.373-0.444 0.836-0.444 1.337-0 1.233 1.003 2.237 2.236 2.237zM6.032 16.991c2.501 0.348 4.656 2.028 5.597 4.382h12.959q0.14-0.172 0.296-0.327c0.648-0.649 1.508-1.084 2.466-1.195q0.008-0.001 0.016-0.002 0.084-0.009 0.168-0.015 0.022-0.002 0.045-0.004l-3.636-10.369h-1.174v9.826h-8.923v-4.652h-7.815zM1.932 12.703h8.582v-6.931h-3.325v2.475h-1.932v-2.475h-3.325c0 0 0 6.931-0 6.931z"></path>
</symbol>
<symbol id="truck" viewBox="0 0 32 32">
<path d="M25.384 9.171l-4.009-0.557v-2.288c0-0.141-0.028-0.281-0.082-0.412s-0.133-0.249-0.233-0.349-0.218-0.179-0.349-0.233c-0.131-0.054-0.27-0.082-0.412-0.082h-17.2c-0.141 0-0.281 0.028-0.412 0.082s-0.249 0.133-0.349 0.233-0.179 0.218-0.233 0.349c-0.054 0.131-0.082 0.27-0.082 0.412v13.975c0 0.141 0.028 0.281 0.082 0.412s0.133 0.249 0.233 0.349 0.218 0.179 0.349 0.233c0.131 0.054 0.27 0.082 0.412 0.082h2.527q-0.092 0.188-0.162 0.384t-0.118 0.401-0.072 0.411q-0.024 0.208-0.026 0.417c0 0.998 0.396 1.955 1.102 2.66s1.662 1.102 2.66 1.102c0.998 0 1.955-0.396 2.66-1.102s1.102-1.662 1.102-2.66q-0.001-0.209-0.026-0.417t-0.072-0.411-0.118-0.401q-0.070-0.197-0.162-0.384h7.203q-0.092 0.188-0.162 0.385t-0.117 0.4-0.072 0.411-0.025 0.416c0 0.998 0.396 1.955 1.102 2.66s1.662 1.102 2.66 1.102c0.998 0 1.955-0.396 2.66-1.102s1.102-1.662 1.102-2.66q-0.001-0.209-0.026-0.417t-0.072-0.411-0.118-0.401q-0.070-0.197-0.162-0.384h3.603c0.151 0 0.301-0.032 0.439-0.094s0.262-0.152 0.363-0.265c0.101-0.113 0.177-0.246 0.223-0.39s0.061-0.296 0.044-0.447l-0.661-5.88c-0.072-0.64-0.249-1.264-0.525-1.846s-0.646-1.115-1.095-1.576c-0.45-0.461-0.972-0.844-1.547-1.135s-1.194-0.484-1.831-0.572zM25.088 11.3c0.344 0.048 0.679 0.144 0.996 0.286s0.612 0.328 0.877 0.553c0.265 0.225 0.496 0.485 0.688 0.775s0.341 0.605 0.445 0.936h-6.719v-3.066zM4.175 7.4h15.050v11.825h-15.050zM10.625 22.988c0 0.652-0.393 1.24-0.995 1.49s-1.296 0.111-1.757-0.35c-0.461-0.461-0.599-1.155-0.35-1.757s0.838-0.995 1.49-0.995c0.212 0 0.421 0.042 0.617 0.123s0.373 0.2 0.523 0.35c0.15 0.15 0.268 0.328 0.35 0.523s0.123 0.405 0.123 0.617zM24.6 22.988c0 0.652-0.393 1.24-0.995 1.49s-1.296 0.111-1.757-0.35c-0.461-0.461-0.599-1.155-0.35-1.757s0.838-0.995 1.49-0.995c0.212 0 0.421 0.042 0.617 0.123s0.373 0.2 0.523 0.35c0.15 0.15 0.268 0.328 0.35 0.523s0.123 0.405 0.123 0.617zM21.375 19.225v-3.225h7.034l0.363 3.225z"></path>
</symbol>
<symbol id="location" viewBox="0 0 32 32">
<path d="M10.005 12.671c0-3.314 2.686-6 6-6s6 2.686 6 6c0 3.314-2.686 6-6 6s-6-2.686-6-6zM19.343 12.671c0-1.844-1.494-3.338-3.338-3.338s-3.338 1.494-3.338 3.338c0 1.844 1.494 3.338 3.338 3.338s3.338-1.495 3.338-3.338z"></path>
<path d="M18.448 30.969c-1.374 1.359-3.523 1.359-4.897 0-3.209-3.174-8.585-9.26-9.914-15.526-1.722-7.715 4.358-15.438 12.362-15.438 8.007 0 14.086 7.713 12.363 15.438-1.329 6.266-6.706 12.353-9.914 15.527zM6.24 14.862c0.652 2.919 2.112 5.54 3.827 7.963 1.792 2.532 3.823 4.727 5.36 6.248 0.335 0.332 0.811 0.332 1.146 0 1.537-1.521 3.569-3.715 5.36-6.248 1.714-2.423 3.175-5.044 3.826-7.964 1.356-6.075-3.477-12.19-9.76-12.19-6.28 0-11.114 6.124-9.76 12.191z"></path>
</symbol>
</defs>
</svg>
