<svg xmlns="http://www.w3.org/2000/svg" viewBox="0 0 25.65 33.02">
  <path d="M322.49 388.54a3.32 3.32 0 0 0 3.32 3.32h5.57a3.32 3.32 0 0 0 0-6.63h-5.58a3.32 3.32 0 0 0-3.32 3.32" style="fill:#5ebae9" transform="translate(-310.94 -372.25)"/>
  <path d="M321.69 379.31h11.37a3.53 3.53 0 0 0 0-7.06H315a3.53 3.53 0 0 0-3.53 3.53 3.53 3.53 0 0 0 3.53 3.53Z" style="fill:#faa41a" transform="translate(-310.94 -372.25)"/>
  <path d="M311.5 397.5v2.7a5.07 5.07 0 0 0 5.07 5.07 5.07 5.07 0 0 0 5.07-5.07v-2.7a5.07 5.07 0 0 0-5.07-5.07 5.07 5.07 0 0 0-5.07 5.07" style="fill:#be1e2d" transform="translate(-310.94 -372.25)"/>
  <path d="m319.71 390 1.12-1.2a5.07 5.07 0 0 0-7.41-6.91l-1.12 1.2a5.07 5.07 0 0 0 7.41 6.91" style="fill:#f26e69" transform="translate(-310.94 -372.25)"/>
</svg>
