<svg width="78" height="74" viewBox="0 0 78 74" fill="none" xmlns="http://www.w3.org/2000/svg">
<path d="M2.48438 30.6992V0.396484H10.3875V2.39502H5.01677V13.3954H10.0964V15.4443H5.01677V30.6992H2.48438Z" fill="white"/>
<path d="M17.0729 31.0081C15.8864 31.0081 14.952 30.7842 14.268 30.3364C13.5839 29.8885 13.0759 29.254 12.7459 28.433C12.4141 27.6119 12.2046 26.6416 12.1137 25.5238C12.0229 24.4042 11.9766 23.1726 11.9766 21.8309V13.1706C11.9766 11.5527 12.0822 10.0916 12.2936 8.7891C12.5049 7.4866 12.9721 6.45654 13.6951 5.69892C14.42 4.94131 15.5453 4.5625 17.0729 4.5625C18.2241 4.5625 19.1362 4.78083 19.8092 5.21748C20.4821 5.65414 20.9771 6.26247 21.2979 7.04248C21.6167 7.82249 21.8225 8.73498 21.9133 9.77997C22.0042 10.825 22.0505 11.9558 22.0505 13.1724V21.8328C22.0505 23.1539 22.0097 24.3687 21.93 25.4828C21.8503 26.5968 21.6557 27.5653 21.3479 28.3919C21.0402 29.2186 20.5489 29.8605 19.8778 30.3196C19.2048 30.7786 18.2705 31.0081 17.0729 31.0081ZM17.0729 28.7521C17.7792 28.7521 18.3076 28.5002 18.6561 27.9945C19.0046 27.4888 19.2308 26.7871 19.3402 25.8858C19.4477 24.9845 19.5033 23.9321 19.5033 22.7266V12.5678C19.5033 11.4314 19.4495 10.4331 19.3402 9.57284C19.2326 8.71259 19.0065 8.03708 18.6653 7.55004C18.3242 7.063 17.7922 6.81855 17.0747 6.81855C16.3109 6.81855 15.7455 7.063 15.3821 7.55004C15.0169 8.03708 14.7833 8.71259 14.6814 9.57284C14.5794 10.4331 14.5275 11.4333 14.5275 12.5678V22.7266C14.5275 23.9321 14.5813 24.9845 14.6906 25.8858C14.7982 26.7871 15.0355 27.4906 15.4007 27.9945C15.7659 28.5002 16.3239 28.7521 17.0766 28.7521" fill="white"/>
<path d="M30.1216 31.0081C28.9351 31.0081 28.0008 30.7842 27.3167 30.3364C26.6326 29.8885 26.1246 29.254 25.7947 28.433C25.4628 27.6119 25.2533 26.6416 25.1606 25.5238C25.0679 24.4061 25.0234 23.1726 25.0234 21.8309V13.1706C25.0234 11.5527 25.1291 10.0916 25.3405 8.7891C25.5518 7.4866 26.019 6.45654 26.742 5.69892C27.465 4.94131 28.5922 4.5625 30.1197 4.5625C31.271 4.5625 32.1831 4.78083 32.8561 5.21748C33.529 5.65414 34.024 6.26247 34.3447 7.04248C34.6636 7.82249 34.8694 8.73498 34.9602 9.77997C35.0511 10.825 35.0974 11.9558 35.0974 13.1724V21.8328C35.0974 23.1539 35.0566 24.3687 34.9769 25.4828C34.8972 26.5968 34.7025 27.5653 34.3948 28.3919C34.087 29.2186 33.5958 29.8605 32.9247 30.3196C32.2536 30.7786 31.3173 31.0081 30.1197 31.0081M30.1216 28.7521C30.8279 28.7521 31.3563 28.5002 31.7048 27.9945C32.0533 27.4888 32.2814 26.7871 32.3889 25.8858C32.4964 24.9845 32.552 23.9321 32.552 22.7266V12.5678C32.552 11.4314 32.4983 10.4331 32.3889 9.57284C32.2814 8.71259 32.0552 8.03708 31.7141 7.55004C31.373 7.063 30.8428 6.81855 30.1235 6.81855C29.3597 6.81855 28.7942 7.063 28.429 7.55004C28.0638 8.03708 27.8302 8.71259 27.7282 9.57284C27.6263 10.4331 27.5744 11.4333 27.5744 12.5678V22.7266C27.5744 23.9321 27.6281 24.9845 27.7375 25.8858C27.845 26.7871 28.0823 27.4906 28.4475 27.9945C28.8128 28.5002 29.3708 28.7521 30.1235 28.7521" fill="white"/>
<path d="M42.1326 30.8887C40.9813 30.8887 40.1137 30.5192 39.5334 29.7784C38.9513 29.0376 38.5638 28.028 38.3692 26.7479C38.1764 25.4678 38.0781 24.0254 38.0781 22.4168V13.3441C38.0781 11.6796 38.1949 10.1849 38.4285 8.86C38.6621 7.5351 39.1219 6.48638 39.8059 5.71757C40.49 4.94876 41.493 4.56435 42.8166 4.56435C43.421 4.56435 43.9716 4.77895 44.4666 5.21001C44.9634 5.64106 45.3194 6.14303 45.5363 6.71591V0H48.102V30.6984H45.5363V28.7353C45.1822 29.5619 44.6872 30.1273 44.0476 30.4315C43.408 30.7357 42.7703 30.8868 42.1326 30.8868M42.8852 28.7353C43.421 28.7353 43.8882 28.627 44.2886 28.4087C44.6872 28.1904 44.9986 27.6922 45.2211 26.9103C45.4436 26.1303 45.5548 24.9005 45.5548 23.2267V12.844C45.5548 10.7559 45.4009 9.23507 45.0932 8.28152C44.7855 7.32984 44.0902 6.85213 43.0057 6.85213C42.0714 6.86332 41.4429 7.3373 41.124 8.27219C40.8052 9.20895 40.6457 10.7727 40.6457 12.9634V23.1912C40.6457 24.2922 40.6921 25.2607 40.7829 26.0929C40.8738 26.9252 41.0796 27.5746 41.3984 28.0392C41.7173 28.5039 42.2141 28.7371 42.8871 28.7371" fill="white"/>
<path d="M2.44341 69.8209V46.4804H0V44.4949H2.44341V43.2652C2.44341 41.7201 2.71408 40.5221 3.25541 39.673C3.79674 38.824 4.77002 38.4004 6.17712 38.4004C6.80558 38.4004 7.34877 38.4508 7.80853 38.5497C8.26829 38.6486 8.50929 38.7046 8.53339 38.7158V40.8412C8.0106 40.7591 7.53786 40.718 7.12074 40.718C6.15487 40.718 5.5709 40.9196 5.36697 41.3245C5.16305 41.7276 5.06108 42.2463 5.06108 42.8789V44.4949H8.53339V46.4804H5.06108V69.8209H2.44341Z" fill="white"/>
<path d="M13.8353 70.0123C12.4504 70.0123 11.4104 69.4245 10.7115 68.247C10.0126 67.0696 9.66406 65.3883 9.66406 63.1975V59.8256C9.66406 58.8888 9.85872 58.092 10.248 57.437C10.6373 56.782 11.1787 56.2073 11.8702 55.7165C12.5617 55.2258 13.3718 54.7686 14.295 54.3469C15.2201 53.9251 16.212 53.4866 17.2705 53.0294V51.238C17.2705 49.8926 17.2353 48.7935 17.1667 47.9444C17.0963 47.0954 16.9053 46.4684 16.5901 46.0653C16.2768 45.6623 15.7466 45.4589 15.0014 45.4589C14.2561 45.4589 13.7482 45.6548 13.4052 46.0467C13.0622 46.4385 12.8416 47.0711 12.7434 47.9426C12.6451 48.8159 12.595 49.971 12.595 51.4116V52.0609H9.97737V51.3574C9.97737 50.3031 10.0163 49.2861 10.0905 48.3009C10.1665 47.3175 10.3574 46.4404 10.667 45.666C10.9748 44.8935 11.4697 44.2814 12.1501 43.8298C12.8305 43.3801 13.7815 43.1543 15.0014 43.1543C16.2212 43.1543 17.1852 43.3596 17.8545 43.7682C18.5237 44.1788 19.0002 44.7871 19.2857 45.5951C19.5712 46.4031 19.7399 47.3977 19.7918 48.5808C19.8437 49.7638 19.8697 51.1279 19.8697 52.673V69.8145H17.2705V67.8477C17.2001 68.0586 17.0314 68.3366 16.7644 68.6818C16.4956 69.0271 16.1211 69.335 15.6391 69.6037C15.1552 69.8724 14.5546 70.0067 13.8334 70.0067M14.3062 67.8346C14.9921 67.8346 15.6076 67.6387 16.1563 67.2468C16.7032 66.855 17.0759 66.478 17.2724 66.1142V55.1213C16.1897 55.6139 15.3147 56.0338 14.6473 56.3864C13.978 56.7373 13.4719 57.0974 13.129 57.4669C12.786 57.8364 12.5524 58.2861 12.4319 58.8198C12.3095 59.3535 12.2484 60.0402 12.2484 60.8836V62.9736C12.2484 64.7295 12.3818 65.9798 12.6507 66.7225C12.9176 67.4652 13.4701 67.8384 14.308 67.8384" fill="white"/>
<path d="M28.0436 70.1357C26.8571 70.1357 25.9209 69.9081 25.235 69.4509C24.549 68.9937 24.0448 68.3499 23.7259 67.5195C23.4052 66.6892 23.2013 65.7076 23.116 64.5787C23.0289 63.4497 22.9844 62.205 22.9844 60.8466V51.7664C22.9844 50.1746 23.0975 48.7284 23.3255 47.4278C23.5517 46.129 24.0355 45.0915 24.7734 44.319C25.5131 43.5464 26.6421 43.1602 28.166 43.1602C29.3524 43.1602 30.2738 43.371 30.9319 43.7927C31.5882 44.2145 32.0591 44.8135 32.3446 45.5935C32.6301 46.3716 32.8044 47.2972 32.8674 48.3683C32.9304 49.4394 32.9638 50.6188 32.9638 51.9082V52.733H30.3294V51.117C30.3294 49.8873 30.2998 48.8628 30.2423 48.0436C30.183 47.2244 30.0069 46.6067 29.7102 46.1906C29.4136 45.7745 28.9038 45.5674 28.1826 45.5674C27.404 45.5674 26.8312 45.8025 26.4641 46.2709C26.097 46.7392 25.8597 47.398 25.7485 48.247C25.6373 49.0961 25.5817 50.1 25.5817 51.2588V61.8318C25.5817 63.1903 25.628 64.3062 25.7207 65.1777C25.8134 66.0491 26.034 66.6948 26.3844 67.109C26.7329 67.5251 27.2909 67.7323 28.0603 67.7323C28.8296 67.7323 29.3172 67.5046 29.6305 67.0474C29.9438 66.5903 30.1385 65.9334 30.2145 65.0713C30.2905 64.211 30.3276 63.1661 30.3276 61.9363V59.9527H32.9619V60.7439C32.9619 62.1136 32.9323 63.3732 32.8748 64.5189C32.8173 65.6647 32.6449 66.6593 32.3594 67.4953C32.0739 68.3331 31.5956 68.9825 30.9208 69.4453C30.246 69.9081 29.2857 70.1395 28.0417 70.1395" fill="white"/>
<path d="M40.711 69.9761C39.595 69.9761 38.7607 69.8511 38.2064 69.5992C37.654 69.3473 37.2869 68.9311 37.1071 68.3527C36.9273 67.7742 36.8364 66.9923 36.8364 66.0089V45.5141H34.2188V43.4764H36.8364V38.9102H39.4541V43.4764H42.5427V45.5141H39.4541V66.1489C39.4541 66.6172 39.5097 66.9662 39.6191 67.1938C39.7303 67.4215 40.001 67.5708 40.4311 67.6417C40.8612 67.7126 41.5601 67.7481 42.5241 67.7481V69.978H40.7092L40.711 69.9761Z" fill="white"/>
<path d="M49.542 70.1358C48.3314 70.1358 47.3785 69.9082 46.6815 69.451C45.9844 68.9938 45.4653 68.3482 45.1279 67.5103C44.7905 66.6724 44.5755 65.6834 44.4828 64.5433C44.3901 63.4013 44.3438 62.1454 44.3438 60.7757V51.9419C44.3438 50.2904 44.4513 48.8013 44.6663 47.4727C44.8814 46.1441 45.3578 45.0935 46.0975 44.3209C46.8372 43.5484 47.9848 43.1621 49.5439 43.1621C50.7192 43.1621 51.6499 43.3842 52.3358 43.8302C53.0217 44.2761 53.5279 44.8957 53.8541 45.6925C54.1804 46.4893 54.3881 47.4204 54.4826 48.4841C54.5753 49.5496 54.6216 50.7028 54.6216 51.9437V60.7776C54.6216 62.1249 54.5809 63.3658 54.4993 64.5004C54.4177 65.6368 54.2194 66.6258 53.906 67.4674C53.5927 68.3108 53.0922 68.9658 52.4063 69.4342C51.7203 69.9026 50.7656 70.1358 49.5457 70.1358M49.542 67.835C50.2632 67.835 50.8008 67.5775 51.1567 67.0625C51.5108 66.5474 51.7444 65.8309 51.8538 64.9109C51.965 63.9928 52.0207 62.918 52.0207 61.6882V51.3261C52.0207 50.1673 51.965 49.1484 51.8538 48.2695C51.7426 47.3906 51.5145 46.7039 51.1642 46.2056C50.8156 45.7074 50.2743 45.4592 49.542 45.4592C48.7634 45.4592 48.1868 45.7074 47.8142 46.2056C47.4416 46.7039 47.2043 47.3906 47.0986 48.2695C46.9948 49.1484 46.941 50.1654 46.941 51.3261V61.6882C46.941 62.918 46.9966 63.9928 47.1079 64.9109C47.2173 65.8309 47.4601 66.5474 47.8309 67.0625C48.2035 67.5775 48.7727 67.835 49.5402 67.835" fill="white"/>
<path d="M58.2109 69.8205V43.4775H60.8101V46.4109C61.1123 45.392 61.6388 44.5971 62.3896 44.0224C63.1404 43.4495 64.0951 43.1621 65.2594 43.1621C65.2835 43.1621 65.2965 43.2741 65.302 43.4961C65.3076 43.7182 65.3113 43.9794 65.3113 44.278V45.3939C64.7403 45.3939 64.2008 45.4667 63.6891 45.6141C63.1775 45.7596 62.6881 46.0153 62.2227 46.3773C61.7574 46.7393 61.2865 47.2618 60.8101 47.9411V69.8242H58.2109V69.8205Z" fill="white"/>
<path d="M66.8691 73.9994V71.7508H67.8275C68.317 71.7508 68.7693 71.7359 69.1883 71.7061C69.6073 71.6762 69.8687 71.6277 69.9743 71.5568C70.1727 71.3571 70.2543 71.0473 70.219 70.6256C70.1838 70.2039 70.1208 69.7131 70.0262 69.1514L65.6641 43.4746H68.2799L70.3562 57.4009L71.1942 64.5666H71.4222L72.173 57.4009L74.0399 43.4746H76.639L72.4696 69.7654C72.3065 70.8197 72.1322 71.6557 71.9468 72.2771C71.7615 72.8966 71.4519 73.3388 71.0218 73.602C70.5917 73.8651 69.928 73.9976 69.0326 73.9976H66.8691V73.9994Z" fill="white"/>
<path d="M66.5625 17.03C66.5625 18.5247 67.7657 19.7358 69.2506 19.7358H73.7648C75.2498 19.7358 76.4529 18.5247 76.4529 17.03C76.4529 15.5353 75.2498 14.3242 73.7648 14.3242H69.2506C67.7657 14.3242 66.5625 15.5353 66.5625 17.03Z" fill="#62B5E5"/>
<path d="M65.9208 9.50454V9.50081H75.1402C76.7197 9.50081 78.0007 8.21137 78.0007 6.6215C78.0007 5.03163 76.7197 3.74219 75.1402 3.74219H60.5168C58.9373 3.74219 57.6562 5.03163 57.6562 6.6215V6.62523C57.6562 8.21511 58.9373 9.50454 60.5168 9.50454H65.9208Z" fill="#FFA300"/>
<path d="M57.6562 24.3499V26.5537C57.6562 28.8378 59.4953 30.6889 61.7663 30.6889C64.0373 30.6889 65.8763 28.8378 65.8763 26.5537V24.3499C65.8763 22.0659 64.0373 20.2129 61.7663 20.2129C59.4953 20.2129 57.6562 22.064 57.6562 24.3499Z" fill="#CB2C30"/>
<path d="M64.3114 18.2399L65.2198 17.2583C66.7678 15.5882 66.677 12.9702 65.0159 11.412C63.3567 9.85385 60.7557 9.94529 59.2077 11.6173L58.2993 12.5988C56.7513 14.2689 56.8421 16.887 58.5032 18.4451C60.1624 20.0033 62.7634 19.9119 64.3114 18.2417" fill="#FF7276"/>
</svg>
