<svg width="353" height="80" viewBox="0 0 353 80" fill="none" xmlns="http://www.w3.org/2000/svg">
<path d="M0 69.7892V0.898438H18.0807V5.44418H5.79583V30.4572H17.4216V35.1165H5.79583V69.7892H0Z" fill="white"/>
<path d="M33.39 70.4925C30.6739 70.4925 28.5374 69.9811 26.9691 68.9697C25.4008 67.9469 24.2416 66.515 23.4802 64.6399C22.7188 62.7761 22.2415 60.5714 22.0256 58.0258C21.821 55.4802 21.7188 52.6845 21.7188 49.6275V29.9444C21.7188 26.2624 21.9574 22.944 22.4461 19.9779C22.9234 17.0118 24.003 14.6707 25.6508 12.9547C27.31 11.2387 29.8897 10.375 33.3786 10.375C36.0151 10.375 38.1062 10.875 39.6404 11.8637C41.1859 12.8524 42.311 14.2389 43.0497 16.0117C43.777 17.7846 44.2429 19.8642 44.4588 22.2394C44.6634 24.6146 44.7771 27.1829 44.7771 29.9558V49.6389C44.7771 52.6391 44.6861 55.412 44.5043 57.9349C44.3225 60.4691 43.8793 62.6738 43.1747 64.5489C42.4701 66.4241 41.345 67.8901 39.8108 68.9356C38.2766 69.9811 36.1288 70.5039 33.39 70.5039M33.39 65.3672C35.0037 65.3672 36.2083 64.7876 37.0152 63.6398C37.8107 62.492 38.3335 60.8896 38.5835 58.844C38.8335 56.7984 38.9585 54.4006 38.9585 51.6617V28.5694C38.9585 25.9896 38.8335 23.7168 38.5835 21.7621C38.3335 19.8074 37.8221 18.2732 37.0379 17.1595C36.2538 16.0458 35.0378 15.5003 33.4013 15.5003C31.6512 15.5003 30.3557 16.0572 29.5261 17.1595C28.6965 18.2732 28.151 19.8074 27.9237 21.7621C27.685 23.7168 27.5714 25.9896 27.5714 28.5694V51.6617C27.5714 54.4006 27.6964 56.7984 27.9464 58.844C28.1964 60.8896 28.7306 62.492 29.5715 63.6398C30.4125 64.7876 31.6853 65.3672 33.4127 65.3672" fill="white"/>
<path d="M63.2571 70.4925C60.5411 70.4925 58.4046 69.9811 56.8363 68.9697C55.268 67.9469 54.1088 66.515 53.3474 64.6399C52.586 62.7761 52.1087 60.5714 51.8928 58.0258C51.6882 55.4802 51.5859 52.6845 51.5859 49.6275V29.9444C51.5859 26.2624 51.8246 22.944 52.3133 19.9779C52.7906 17.0118 53.8702 14.6707 55.518 12.9547C57.1772 11.2387 59.7569 10.375 63.2458 10.375C65.8823 10.375 67.9734 10.875 69.5075 11.8637C71.0531 12.8524 72.1782 14.2389 72.9169 16.0117C73.6442 17.7846 74.1101 19.8642 74.326 22.2394C74.5306 24.6146 74.6442 27.1829 74.6442 29.9558V49.6389C74.6442 52.6391 74.5533 55.412 74.3715 57.9349C74.1897 60.4691 73.7465 62.6738 73.0419 64.5489C72.3373 66.4241 71.2122 67.8901 69.678 68.9356C68.1438 69.9811 65.996 70.5039 63.2571 70.5039M63.2571 65.3672C64.8709 65.3672 66.0755 64.7876 66.8824 63.6398C67.6779 62.492 68.2006 60.8896 68.4507 58.844C68.7007 56.7984 68.8257 54.4006 68.8257 51.6617V28.5694C68.8257 25.9896 68.7007 23.7168 68.4507 21.7621C68.2006 19.8074 67.6892 18.2732 66.9051 17.1595C66.121 16.0458 64.905 15.5003 63.2685 15.5003C61.5184 15.5003 60.2229 16.0572 59.3933 17.1595C58.5637 18.2732 58.0182 19.8074 57.7909 21.7621C57.5522 23.7168 57.4386 25.9896 57.4386 28.5694V51.6617C57.4386 54.4006 57.5636 56.7984 57.8136 58.844C58.0636 60.8896 58.5978 62.492 59.4387 63.6398C60.2797 64.7876 61.5525 65.3672 63.2799 65.3672" fill="white"/>
<path d="M90.7421 70.2204C88.1055 70.2204 86.1281 69.3795 84.7985 67.6975C83.4689 66.0156 82.5825 63.72 82.1392 60.8107C81.696 57.9015 81.4688 54.6172 81.4688 50.9692V30.3429C81.4688 26.5585 81.7415 23.1606 82.2756 20.149C82.8097 17.1375 83.8553 14.751 85.4235 13.0008C86.9918 11.2507 89.2874 10.3757 92.3104 10.3757C93.6968 10.3757 94.9583 10.8643 96.0833 11.8417C97.2198 12.819 98.038 13.9668 98.5267 15.2623V0H104.402V69.7886H98.5267V65.3224C97.7198 67.1975 96.5834 68.4931 95.1173 69.1749C93.6513 69.8681 92.1967 70.2091 90.7307 70.2091M92.4581 65.3224C93.6854 65.3224 94.7537 65.0724 95.6742 64.5837C96.5834 64.0837 97.2993 62.9586 97.8107 61.1744C98.3221 59.4016 98.5721 56.6059 98.5721 52.7989V29.1951C98.5721 24.4448 98.2198 20.99 97.5152 18.8194C96.8106 16.6602 95.2196 15.5692 92.7422 15.5692C90.6057 15.5919 89.1624 16.6715 88.4351 18.7967C87.7078 20.9218 87.3441 24.4789 87.3441 29.4678V52.7193C87.3441 55.2195 87.4464 57.4242 87.651 59.3106C87.8555 61.1971 88.3328 62.6745 89.0601 63.7314C89.7875 64.7883 90.9239 65.311 92.4695 65.311" fill="white"/>
<path d="M186.61 70.0045V18.0012H181.133V13.5804H186.61V10.8416C186.61 7.3982 187.213 4.72758 188.429 2.84109C189.645 0.954607 191.827 0 194.986 0C196.395 0 197.611 0.113644 198.645 0.329567C199.679 0.556854 200.214 0.670498 200.27 0.704591V5.44353C199.1 5.2617 198.043 5.17079 197.1 5.17079C194.929 5.17079 193.622 5.62536 193.168 6.52315C192.713 7.42093 192.486 8.5801 192.486 9.98928V13.5918H200.27V18.0125H192.486V70.0159H186.622L186.61 70.0045Z" fill="white"/>
<path d="M212.173 70.4236C209.071 70.4236 206.73 69.1167 205.173 66.4915C203.604 63.8664 202.82 60.1161 202.82 55.2408V47.729C202.82 45.6379 203.264 43.8651 204.127 42.4104C205.002 40.9558 206.218 39.6716 207.764 38.5806C209.321 37.4897 211.128 36.4669 213.207 35.5236C215.287 34.5804 217.503 33.603 219.878 32.5916V28.6027C219.878 25.6025 219.799 23.1592 219.64 21.2727C219.48 19.3862 219.049 17.9884 218.344 17.0906C217.639 16.1928 216.446 15.7383 214.787 15.7383C213.128 15.7383 211.98 16.1701 211.207 17.0452C210.434 17.9202 209.946 19.3294 209.718 21.2727C209.491 23.216 209.389 25.7957 209.389 29.0005V30.4438H203.525V28.8755C203.525 26.523 203.616 24.2615 203.775 22.0682C203.945 19.8749 204.377 17.9202 205.07 16.2042C205.764 14.4882 206.866 13.1245 208.4 12.113C209.923 11.113 212.06 10.6016 214.798 10.6016C217.537 10.6016 219.696 11.0561 221.196 11.9767C222.697 12.8858 223.765 14.2495 224.401 16.0451C225.038 17.8407 225.413 20.0681 225.538 22.6932C225.651 25.3298 225.708 28.3641 225.708 31.8075V69.9918H219.878V65.6051C219.719 66.071 219.344 66.6961 218.742 67.4689C218.139 68.2416 217.299 68.9235 216.219 69.5258C215.139 70.1281 213.787 70.4236 212.173 70.4236ZM213.23 65.571C214.764 65.571 216.151 65.1392 217.378 64.2641C218.605 63.3891 219.435 62.5481 219.878 61.7412V37.251C217.446 38.3533 215.492 39.2852 213.991 40.0694C212.491 40.8535 211.355 41.649 210.594 42.4786C209.821 43.2969 209.298 44.3083 209.025 45.4902C208.753 46.6834 208.616 48.2063 208.616 50.0927V54.7521C208.616 58.6615 208.912 61.4457 209.514 63.1049C210.116 64.7641 211.355 65.5937 213.23 65.5937" fill="white"/>
<path d="M244.025 70.7077C241.366 70.7077 239.263 70.1963 237.729 69.1849C236.195 68.1621 235.058 66.7302 234.342 64.8778C233.626 63.0254 233.172 60.8434 232.967 58.3205C232.774 55.809 232.672 53.0361 232.672 50.0018V29.7733C232.672 26.2276 232.922 23.0001 233.433 20.1135C233.945 17.2156 235.024 14.9087 236.683 13.1813C238.343 11.4653 240.877 10.6016 244.298 10.6016C246.957 10.6016 249.025 11.0675 250.503 12.0107C251.98 12.954 253.037 14.2836 253.673 16.0224C254.31 17.7611 254.707 19.8181 254.844 22.2046C254.991 24.5911 255.06 27.2163 255.06 30.0915V31.9325H249.15V28.33C249.15 25.5912 249.082 23.3069 248.957 21.4773C248.821 19.6476 248.434 18.2725 247.764 17.352C247.093 16.4201 245.957 15.9655 244.343 15.9655C242.593 15.9655 241.309 16.4883 240.491 17.5338C239.672 18.5793 239.138 20.0454 238.888 21.9318C238.638 23.8183 238.513 26.0571 238.513 28.6368V52.1951C238.513 55.2181 238.615 57.7069 238.831 59.6502C239.036 61.5935 239.536 63.0254 240.32 63.9573C241.104 64.8891 242.354 65.3437 244.082 65.3437C245.809 65.3437 246.9 64.8323 247.605 63.8209C248.309 62.8095 248.741 61.3321 248.912 59.4229C249.082 57.5023 249.162 55.1726 249.162 52.4338V48.0131H255.071V49.7745C255.071 52.8316 255.003 55.6272 254.878 58.1842C254.753 60.7412 254.366 62.9572 253.719 64.821C253.082 66.6847 252.003 68.1394 250.491 69.1622C248.98 70.1963 246.821 70.7077 244.036 70.7077" fill="white"/>
<path d="M272.429 70.3571C269.929 70.3571 268.054 70.073 266.815 69.5161C265.576 68.9593 264.758 68.0274 264.349 66.7319C263.94 65.4363 263.747 63.6976 263.747 61.5042V15.8536H257.883V11.3078H263.747V1.13672H269.611V11.3078H276.532V15.8536H269.611V61.8224C269.611 62.868 269.736 63.6407 269.986 64.1521C270.236 64.6635 270.838 64.9931 271.804 65.1522C272.77 65.3113 274.338 65.3909 276.498 65.3909V70.3571H272.429Z" fill="white"/>
<path d="M292.234 70.6963C289.518 70.6963 287.381 70.1849 285.813 69.1735C284.245 68.1507 283.085 66.7188 282.324 64.8551C281.563 62.9913 281.085 60.7866 280.881 58.241C280.676 55.6954 280.562 52.8997 280.562 49.8427V30.1596C280.562 26.4776 280.801 23.1592 281.29 20.2045C281.767 17.2497 282.835 14.9087 284.495 13.1813C286.154 11.4653 288.722 10.6016 292.222 10.6016C294.859 10.6016 296.939 11.1016 298.484 12.0903C300.018 13.079 301.155 14.4654 301.893 16.2383C302.621 18.0111 303.087 20.0908 303.303 22.4546C303.507 24.8298 303.621 27.3981 303.621 30.1596V49.8427C303.621 52.8429 303.53 55.6045 303.348 58.1387C303.166 60.673 302.723 62.8777 302.018 64.7528C301.314 66.6279 300.189 68.0939 298.655 69.1394C297.12 70.1849 294.973 70.7077 292.234 70.7077M292.234 65.571C293.847 65.571 295.052 64.9914 295.848 63.8436C296.643 62.6958 297.166 61.0934 297.416 59.0479C297.666 57.0023 297.791 54.6044 297.791 51.8656V28.7846C297.791 26.2048 297.666 23.932 297.416 21.9773C297.166 20.0226 296.654 18.4884 295.87 17.3747C295.086 16.261 293.87 15.7155 292.234 15.7155C290.484 15.7155 289.199 16.2724 288.358 17.3747C287.529 18.4884 286.983 20.0113 286.756 21.9773C286.517 23.932 286.404 26.2048 286.404 28.7846V51.8656C286.404 54.6044 286.529 57.0023 286.779 59.0479C287.029 61.0934 287.563 62.6958 288.404 63.8436C289.234 64.9914 290.518 65.571 292.234 65.571Z" fill="white"/>
<path d="M311.68 70.0031V11.3062H317.51V17.8407C318.191 15.5678 319.373 13.795 321.055 12.5221C322.737 11.2493 324.885 10.6016 327.488 10.6016C327.544 10.6016 327.567 10.8516 327.59 11.3402C327.601 11.8403 327.613 12.4199 327.613 13.079V15.5678C326.34 15.5678 325.124 15.7269 323.976 16.0565C322.828 16.386 321.737 16.9542 320.692 17.7611C319.646 18.568 318.589 19.7272 317.521 21.2386V69.9918H311.691L311.68 70.0031Z" fill="white"/>
<path d="M331.091 79.3126V74.3009H333.239C334.33 74.3009 335.353 74.2668 336.285 74.1987C337.228 74.1305 337.807 74.0282 338.046 73.8691C338.489 73.4259 338.671 72.7326 338.592 71.7894C338.512 70.8462 338.364 69.7552 338.16 68.5051L328.375 11.2969H334.239L338.898 42.3216L340.773 58.2885H341.285L342.967 42.3216L347.149 11.2969H352.979L343.626 69.8688C343.262 72.2213 342.865 74.085 342.455 75.4601C342.035 76.8466 341.353 77.8239 340.376 78.4148C339.41 79.0058 337.921 79.3013 335.921 79.3013H331.068L331.091 79.3126Z" fill="white"/>
<path d="M143.711 38.5267C143.711 41.8564 146.416 44.5611 149.745 44.5611H159.871C163.201 44.5611 165.894 41.8564 165.894 38.5267C165.894 35.1969 163.189 32.4922 159.871 32.4922H149.745C146.416 32.4922 143.711 35.1969 143.711 38.5267Z" fill="#62B5E5"/>
<path d="M142.273 21.7519H162.945C166.491 21.7519 169.366 18.8767 169.366 15.331C169.366 11.7853 166.491 8.91016 162.945 8.91016H130.147C126.602 8.91016 123.727 11.7853 123.727 15.331C123.727 18.8767 126.602 21.7519 130.147 21.7519H142.262H142.273Z" fill="#FFA300"/>
<path d="M123.727 54.8337V59.7431C123.727 64.8343 127.852 68.9596 132.943 68.9596C138.034 68.9596 142.16 64.8343 142.16 59.7431V54.8337C142.16 49.7425 138.034 45.6172 132.943 45.6172C127.852 45.6172 123.727 49.7425 123.727 54.8337Z" fill="#CB2C30"/>
<path d="M138.665 41.2204L140.699 39.0384C144.165 35.3109 143.972 29.481 140.245 26.0149C136.517 22.5487 130.687 22.7419 127.221 26.4694L125.187 28.6514C121.721 32.3789 121.914 38.2088 125.641 41.675C129.369 45.1411 135.199 44.9365 138.665 41.2204Z" fill="#FF7276"/>
</svg>
