<svg width="311" height="70" viewBox="0 0 311 70" fill="none" xmlns="http://www.w3.org/2000/svg">
<path d="M0 61.41V0.790039H15.91V4.79004H5.1V26.8H15.33V30.9H5.1V61.41H0Z" fill="#1D1D1B"/>
<path d="M29.38 62.0299C26.99 62.0299 25.11 61.5799 23.73 60.6899C22.35 59.7899 21.33 58.5299 20.66 56.8799C19.99 55.2399 19.57 53.2999 19.38 51.0599C19.2 48.8199 19.11 46.3599 19.11 43.6699V26.3499C19.11 23.1099 19.32 20.1899 19.75 17.5799C20.17 14.9699 21.12 12.9099 22.57 11.3999C24.03 9.88988 26.3 9.12988 29.37 9.12988C31.69 9.12988 33.53 9.56988 34.88 10.4399C36.24 11.3099 37.23 12.5299 37.88 14.0899C38.52 15.6499 38.93 17.4799 39.12 19.5699C39.3 21.6599 39.4 23.9199 39.4 26.3599V43.6799C39.4 46.3199 39.32 48.7599 39.16 50.9799C39 53.2099 38.61 55.1499 37.99 56.7999C37.37 58.4499 36.38 59.7399 35.03 60.6599C33.68 61.5799 31.79 62.0399 29.38 62.0399M29.38 57.5199C30.8 57.5199 31.86 57.0099 32.57 55.9999C33.27 54.9899 33.73 53.5799 33.95 51.7799C34.17 49.9799 34.28 47.8699 34.28 45.4599V25.1399C34.28 22.8699 34.17 20.8699 33.95 19.1499C33.73 17.4299 33.28 16.0799 32.59 15.0999C31.9 14.1199 30.83 13.6399 29.39 13.6399C27.85 13.6399 26.71 14.1299 25.98 15.0999C25.25 16.0799 24.77 17.4299 24.57 19.1499C24.36 20.8699 24.26 22.8699 24.26 25.1399V45.4599C24.26 47.8699 24.37 49.9799 24.59 51.7799C24.81 53.5799 25.28 54.9899 26.02 55.9999C26.76 57.0099 27.88 57.5199 29.4 57.5199" fill="#1D1D1B"/>
<path d="M55.66 62.0299C53.27 62.0299 51.39 61.5799 50.01 60.6899C48.63 59.7899 47.61 58.5299 46.94 56.8799C46.27 55.2399 45.85 53.2999 45.66 51.0599C45.48 48.8199 45.39 46.3599 45.39 43.6699V26.3499C45.39 23.1099 45.6 20.1899 46.03 17.5799C46.45 14.9699 47.4 12.9099 48.85 11.3999C50.31 9.88988 52.58 9.12988 55.65 9.12988C57.97 9.12988 59.81 9.56988 61.16 10.4399C62.52 11.3099 63.51 12.5299 64.16 14.0899C64.8 15.6499 65.21 17.4799 65.4 19.5699C65.58 21.6599 65.68 23.9199 65.68 26.3599V43.6799C65.68 46.3199 65.6 48.7599 65.44 50.9799C65.28 53.2099 64.89 55.1499 64.27 56.7999C63.65 58.4499 62.66 59.7399 61.31 60.6599C59.96 61.5799 58.07 62.0399 55.66 62.0399M55.66 57.5199C57.08 57.5199 58.14 57.0099 58.85 55.9999C59.55 54.9899 60.01 53.5799 60.23 51.7799C60.45 49.9799 60.56 47.8699 60.56 45.4599V25.1399C60.56 22.8699 60.45 20.8699 60.23 19.1499C60.01 17.4299 59.56 16.0799 58.87 15.0999C58.18 14.1199 57.11 13.6399 55.67 13.6399C54.13 13.6399 52.99 14.1299 52.26 15.0999C51.53 16.0799 51.05 17.4299 50.85 19.1499C50.64 20.8699 50.54 22.8699 50.54 25.1399V45.4599C50.54 47.8699 50.65 49.9799 50.87 51.7799C51.09 53.5799 51.56 54.9899 52.3 55.9999C53.04 57.0099 54.16 57.5199 55.68 57.5199" fill="#1D1D1B"/>
<path d="M79.85 61.79C77.53 61.79 75.79 61.05 74.62 59.57C73.45 58.09 72.67 56.07 72.28 53.51C71.89 50.95 71.69 48.06 71.69 44.85V26.7C71.69 23.37 71.93 20.38 72.4 17.73C72.87 15.08 73.79 12.98 75.17 11.44C76.55 9.9 78.57 9.13 81.23 9.13C82.45 9.13 83.56 9.56 84.55 10.42C85.55 11.28 86.27 12.29 86.7 13.43V0H91.87V61.41H86.7V57.48C85.99 59.13 84.99 60.27 83.7 60.87C82.41 61.48 81.13 61.78 79.84 61.78M81.36 57.48C82.44 57.48 83.38 57.26 84.19 56.83C84.99 56.39 85.62 55.4 86.07 53.83C86.52 52.27 86.74 49.81 86.74 46.46V25.69C86.74 21.51 86.43 18.47 85.81 16.56C85.19 14.66 83.79 13.7 81.61 13.7C79.73 13.72 78.46 14.67 77.82 16.54C77.18 18.41 76.86 21.54 76.86 25.93V46.39C76.86 48.59 76.95 50.53 77.13 52.19C77.31 53.85 77.73 55.15 78.37 56.08C79.01 57.01 80.01 57.47 81.37 57.47" fill="#1D1D1B"/>
<path d="M164.21 61.6V15.84H159.39V11.95H164.21V9.54C164.21 6.51 164.74 4.16 165.81 2.5C166.88 0.84 168.8 0 171.58 0C172.82 0 173.89 0.1 174.8 0.29C175.71 0.49 176.18 0.59 176.23 0.62V4.79C175.2 4.63 174.27 4.55 173.44 4.55C171.53 4.55 170.38 4.95 169.98 5.74C169.58 6.53 169.38 7.55 169.38 8.79V11.96H176.23V15.85H169.38V61.61H164.22L164.21 61.6Z" fill="#1D1D1B"/>
<path d="M186.7 61.9701C183.97 61.9701 181.91 60.8201 180.54 58.5101C179.16 56.2001 178.47 52.9001 178.47 48.6101V42.0001C178.47 40.1601 178.86 38.6001 179.62 37.3201C180.39 36.0401 181.46 34.9101 182.82 33.9501C184.19 32.9901 185.78 32.0901 187.61 31.2601C189.44 30.4301 191.39 29.5701 193.48 28.6801V25.1701C193.48 22.5301 193.41 20.3801 193.27 18.7201C193.13 17.0601 192.75 15.8301 192.13 15.0401C191.51 14.2501 190.46 13.8501 189 13.8501C187.54 13.8501 186.53 14.2301 185.85 15.0001C185.17 15.7701 184.74 17.0101 184.54 18.7201C184.34 20.4301 184.25 22.7001 184.25 25.5201V26.7901H179.09V25.4101C179.09 23.3401 179.17 21.3501 179.31 19.4201C179.46 17.4901 179.84 15.7701 180.45 14.2601C181.06 12.7501 182.03 11.5501 183.38 10.6601C184.72 9.78008 186.6 9.33008 189.01 9.33008C191.42 9.33008 193.32 9.73008 194.64 10.5401C195.96 11.3401 196.9 12.5401 197.46 14.1201C198.02 15.7001 198.35 17.6601 198.46 19.9701C198.56 22.2901 198.61 24.9601 198.61 27.9901V61.5901H193.48V57.7301C193.34 58.1401 193.01 58.6901 192.48 59.3701C191.95 60.0501 191.21 60.6501 190.26 61.1801C189.31 61.7101 188.12 61.9701 186.7 61.9701ZM187.63 57.7001C188.98 57.7001 190.2 57.3201 191.28 56.5501C192.36 55.7801 193.09 55.0401 193.48 54.3301V32.7801C191.34 33.7501 189.62 34.5701 188.3 35.2601C186.98 35.9501 185.98 36.6501 185.31 37.3801C184.63 38.1001 184.17 38.9901 183.93 40.0301C183.69 41.0801 183.57 42.4201 183.57 44.0801V48.1801C183.57 51.6201 183.83 54.0701 184.36 55.5301C184.89 56.9901 185.98 57.7201 187.63 57.7201" fill="#1D1D1B"/>
<path d="M214.73 62.2201C212.39 62.2201 210.54 61.7701 209.19 60.8801C207.84 59.9801 206.84 58.7201 206.21 57.0901C205.58 55.4601 205.18 53.5401 205 51.3201C204.83 49.1101 204.74 46.6701 204.74 44.0001V26.2001C204.74 23.0801 204.96 20.2401 205.41 17.7001C205.86 15.1501 206.81 13.1201 208.27 11.6001C209.73 10.0901 211.96 9.33008 214.97 9.33008C217.31 9.33008 219.13 9.74008 220.43 10.5701C221.73 11.4001 222.66 12.5701 223.22 14.1001C223.78 15.6301 224.13 17.4401 224.25 19.5401C224.38 21.6401 224.44 23.9501 224.44 26.4801V28.1001H219.24V24.9301C219.24 22.5201 219.18 20.5101 219.07 18.9001C218.95 17.2901 218.61 16.0801 218.02 15.2701C217.43 14.4501 216.43 14.0501 215.01 14.0501C213.47 14.0501 212.34 14.5101 211.62 15.4301C210.9 16.3501 210.43 17.6401 210.21 19.3001C209.99 20.9601 209.88 22.9301 209.88 25.2001V45.9301C209.88 48.5901 209.97 50.7801 210.16 52.4901C210.34 54.2001 210.78 55.4601 211.47 56.2801C212.16 57.1001 213.26 57.5001 214.78 57.5001C216.3 57.5001 217.26 57.0501 217.88 56.1601C218.5 55.2701 218.88 53.9701 219.03 52.2901C219.18 50.6001 219.25 48.5501 219.25 46.1401V42.2501H224.45V43.8001C224.45 46.4901 224.39 48.9501 224.28 51.2001C224.17 53.4501 223.83 55.4001 223.26 57.0401C222.7 58.6801 221.75 59.9601 220.42 60.8601C219.09 61.7701 217.19 62.2201 214.74 62.2201" fill="#1D1D1B"/>
<path d="M239.72 61.91C237.52 61.91 235.87 61.66 234.78 61.17C233.69 60.68 232.97 59.86 232.61 58.72C232.25 57.58 232.08 56.05 232.08 54.12V13.95H226.92V9.95H232.08V1H237.24V9.95H243.33V13.95H237.24V54.4C237.24 55.32 237.35 56 237.57 56.45C237.79 56.9 238.32 57.19 239.17 57.33C240.02 57.47 241.4 57.54 243.3 57.54V61.91H239.72Z" fill="#1D1D1B"/>
<path d="M257.15 62.2101C254.76 62.2101 252.88 61.7601 251.5 60.8701C250.12 59.9701 249.1 58.7101 248.43 57.0701C247.76 55.4301 247.34 53.4901 247.16 51.2501C246.98 49.0101 246.88 46.5501 246.88 43.8601V26.5401C246.88 23.3001 247.09 20.3801 247.52 17.7801C247.94 15.1801 248.88 13.1201 250.34 11.6001C251.8 10.0901 254.06 9.33008 257.14 9.33008C259.46 9.33008 261.29 9.77008 262.65 10.6401C264 11.5101 265 12.7301 265.65 14.2901C266.29 15.8501 266.7 17.6801 266.89 19.7601C267.07 21.8501 267.17 24.1101 267.17 26.5401V43.8601C267.17 46.5001 267.09 48.9301 266.93 51.1601C266.77 53.3901 266.38 55.3301 265.76 56.9801C265.14 58.6301 264.15 59.9201 262.8 60.8401C261.45 61.7601 259.56 62.2201 257.15 62.2201M257.15 57.7001C258.57 57.7001 259.63 57.1901 260.33 56.1801C261.03 55.1701 261.49 53.7601 261.71 51.9601C261.93 50.1601 262.04 48.0501 262.04 45.6401V25.3301C262.04 23.0601 261.93 21.0601 261.71 19.3401C261.49 17.6201 261.04 16.2701 260.35 15.2901C259.66 14.3101 258.59 13.8301 257.15 13.8301C255.61 13.8301 254.48 14.3201 253.74 15.2901C253.01 16.2701 252.53 17.6101 252.33 19.3401C252.12 21.0601 252.02 23.0601 252.02 25.3301V45.6401C252.02 48.0501 252.13 50.1601 252.35 51.9601C252.57 53.7601 253.04 55.1701 253.78 56.1801C254.51 57.1901 255.64 57.7001 257.15 57.7001Z" fill="#1D1D1B"/>
<path d="M274.26 61.6001V9.95008H279.39V15.7001C279.99 13.7001 281.03 12.1401 282.51 11.0201C283.99 9.90008 285.88 9.33008 288.17 9.33008C288.22 9.33008 288.24 9.55008 288.26 9.98008C288.27 10.4201 288.28 10.9301 288.28 11.5101V13.7001C287.16 13.7001 286.09 13.8401 285.08 14.1301C284.07 14.4201 283.11 14.9201 282.19 15.6301C281.27 16.3401 280.34 17.3601 279.4 18.6901V61.5901H274.27L274.26 61.6001Z" fill="#1D1D1B"/>
<path d="M291.34 69.7904V65.3804H293.23C294.19 65.3804 295.09 65.3504 295.91 65.2904C296.74 65.2304 297.25 65.1404 297.46 65.0004C297.85 64.6104 298.01 64.0004 297.94 63.1704C297.87 62.3404 297.74 61.3804 297.56 60.2804L288.95 9.94043H294.11L298.21 37.2404L299.86 51.2904H300.31L301.79 37.2404L305.47 9.94043H310.6L302.37 61.4804C302.05 63.5504 301.7 65.1904 301.34 66.4004C300.97 67.6204 300.37 68.4804 299.51 69.0004C298.66 69.5204 297.35 69.7804 295.59 69.7804H291.32L291.34 69.7904Z" fill="#1D1D1B"/>
<path d="M126.46 33.8998C126.46 36.8298 128.84 39.2098 131.77 39.2098H140.68C143.61 39.2098 145.98 36.8298 145.98 33.8998C145.98 30.9698 143.6 28.5898 140.68 28.5898H131.77C128.84 28.5898 126.46 30.9698 126.46 33.8998Z" fill="#6EB1DE"/>
<path d="M125.19 19.1398H143.38C146.5 19.1398 149.03 16.6098 149.03 13.4898C149.03 10.3698 146.5 7.83984 143.38 7.83984H114.52C111.4 7.83984 108.87 10.3698 108.87 13.4898C108.87 16.6098 111.4 19.1398 114.52 19.1398H125.18H125.19Z" fill="#EB9900"/>
<path d="M108.87 48.2496V52.5696C108.87 57.0496 112.5 60.6796 116.98 60.6796C121.46 60.6796 125.09 57.0496 125.09 52.5696V48.2496C125.09 43.7696 121.46 40.1396 116.98 40.1396C112.5 40.1396 108.87 43.7696 108.87 48.2496Z" fill="#B21622"/>
<path d="M122.02 36.2705L123.81 34.3505C126.86 31.0705 126.69 25.9405 123.41 22.8905C120.13 19.8405 115 20.0105 111.95 23.2905L110.16 25.2105C107.11 28.4905 107.28 33.6205 110.56 36.6705C113.84 39.7205 118.97 39.5405 122.02 36.2705Z" fill="#E06765"/>
</svg>
