<svg width="23" height="15" viewBox="0 0 23 15" fill="none" xmlns="http://www.w3.org/2000/svg">
<path opacity="0.1" d="M14.2636 1.96289H8.3125V12.8006H14.2636V1.96289Z" fill="#000"/>
<path d="M8.68743 7.38322C8.68632 6.33933 8.91969 5.30886 9.36977 4.36985C9.81985 3.43085 10.4748 2.60793 11.2852 1.96341C10.2818 1.16436 9.07687 0.667476 7.808 0.529551C6.53914 0.391627 5.25759 0.618224 4.1098 1.18345C2.96202 1.74866 1.99432 2.62971 1.3173 3.72588C0.640277 4.82205 0.28125 6.08911 0.28125 7.38226C0.28125 8.6754 0.640277 9.9425 1.3173 11.0387C1.99432 12.1348 2.96202 13.0158 4.1098 13.5811C5.25759 14.1463 6.53914 14.3729 7.808 14.2349C9.07687 14.097 10.2818 13.6001 11.2852 12.8011C10.4751 12.1568 9.82024 11.3342 9.37016 10.3955C8.92008 9.4569 8.68664 8.42679 8.68743 7.38322Z" fill="#000"/>
<path d="M22.294 7.38207C22.294 8.67533 21.9349 9.94243 21.2577 11.0387C20.5806 12.1349 19.6127 13.0159 18.4648 13.581C17.3169 14.1461 16.0352 14.3726 14.7663 14.2345C13.4974 14.0964 12.2923 13.5993 11.2891 12.7999C12.0988 12.1551 12.7535 11.3322 13.2037 10.3935C13.6539 9.45485 13.8878 8.42475 13.8878 7.3811C13.8878 6.33744 13.6539 5.30739 13.2037 4.36869C12.7535 3.42999 12.0988 2.60715 11.2891 1.96225C12.2923 1.16295 13.4974 0.665829 14.7663 0.527706C16.0352 0.389583 17.3169 0.616035 18.4648 1.18118C19.6127 1.74632 20.5806 2.62734 21.2577 3.72355C21.9349 4.81975 22.294 6.0869 22.294 7.38015V7.38207Z" fill="#000"/>
<path d="M21.6438 11.6528V11.4307H21.7327V11.3848H21.5078V11.4307H21.6041V11.6528H21.6438ZM22.0803 11.6528V11.3848H22.0122L21.9329 11.5762L21.8535 11.3848H21.7931V11.6528H21.8422V11.4517L21.9159 11.6259H21.9669L22.0405 11.4517V11.6547L22.0803 11.6528Z" fill="#000"/>
</svg>
