<svg width="18" height="18" viewBox="0 0 18 18" fill="none" xmlns="http://www.w3.org/2000/svg">
<path d="M13.1642 15.2986C12.7028 17.569 11.3357 18.1668 10.0618 17.8505C8.78784 17.5346 8.0032 16.7704 7.08834 16.5999L7.04696 16.6139C6.1321 16.4433 5.12102 16.8947 3.81873 16.7307C2.51639 16.5667 1.44868 15.5582 1.83585 13.274C2.30007 11.1971 3.92157 11.3401 5.73848 9.12299C7.33834 7.17059 8.72435 7.61094 8.72435 7.61094L8.76174 7.61792C8.76174 7.61792 10.2238 7.71797 11.0028 10.1037C11.8923 12.8286 13.479 13.1938 13.1642 15.2986ZM6.59878 6.24407C7.75585 6.37012 8.83718 5.15704 9.01399 3.53449C9.19071 1.91198 8.39601 0.494428 7.23892 0.368374C6.08185 0.242318 5.0005 1.45544 4.82373 3.07796C4.64696 4.70047 5.44166 6.11801 6.59878 6.24407ZM10.9181 7.07755C11.9764 7.58921 13.416 6.801 14.1334 5.31699C14.8509 3.83297 14.5745 2.21514 13.5162 1.70348C12.4578 1.19181 11.0182 1.98002 10.3007 3.46404C9.58336 4.94802 9.85966 6.56587 10.9181 7.07755ZM16.3169 6.78819C15.3953 6.34258 14.1416 7.02894 13.5168 8.32126C12.8922 9.61358 13.1328 11.0224 14.0544 11.468C14.9761 11.9136 16.2298 11.2272 16.8545 9.93488C17.4793 8.64264 17.2386 7.23377 16.3169 6.78819ZM4.48843 6.63906C4.37094 5.20853 3.44862 4.11672 2.42834 4.20048C1.40805 4.28426 0.676147 5.5119 0.793629 6.94247C0.911114 8.37297 1.83347 9.46483 2.85376 9.38105C3.874 9.29735 4.60587 8.06967 4.48843 6.63906Z" fill="black"/>
</svg>
