<svg width="32" height="12" viewBox="0 0 32 12" fill="none" xmlns="http://www.w3.org/2000/svg">
<path d="M13.669 11.3542H11.2109L12.7484 1.01172H15.2064L13.669 11.3542Z" fill="#000"/>
<path d="M22.5767 1.26454C22.0919 1.05527 21.3228 0.824219 20.372 0.824219C17.9446 0.824219 16.2351 2.23249 16.2247 4.24589C16.2045 5.73137 17.4485 6.55644 18.379 7.05175C19.3299 7.55788 19.6533 7.88823 19.6533 8.33938C19.6436 9.03225 18.8848 9.3516 18.1771 9.3516C17.1957 9.3516 16.6699 9.18697 15.8708 8.80149L15.5471 8.63624L15.2031 10.9579C15.7796 11.2436 16.8418 11.4972 17.9446 11.5084C20.5237 11.5084 22.2028 10.1219 22.2228 7.97626C22.2325 6.79891 21.5757 5.89677 20.1595 5.15958C19.2997 4.68635 18.7732 4.36726 18.7732 3.88307C18.7833 3.4429 19.2185 2.99205 20.189 2.99205C20.9881 2.96997 21.5753 3.17894 22.02 3.38806L22.2424 3.49788L22.5767 1.26454Z" fill="#000"/>
<path d="M25.85 7.69025C26.0524 7.09609 26.8314 4.7965 26.8314 4.7965C26.8211 4.81858 27.0333 4.19137 27.1547 3.80632L27.3265 4.6975C27.3265 4.6975 27.792 7.17316 27.8931 7.69025C27.5089 7.69025 26.3355 7.69025 25.85 7.69025ZM28.8842 1.01172H26.9828C26.3965 1.01172 25.951 1.19861 25.6981 1.86984L22.0469 11.3541H24.6261C24.6261 11.3541 25.0508 10.0776 25.142 9.80269C25.425 9.80269 27.934 9.80269 28.298 9.80269C28.3686 10.1657 28.5913 11.3541 28.5913 11.3541H30.8672L28.8842 1.01172Z" fill="#000"/>
<path d="M9.15472 1.01172L6.74745 8.06433L6.48439 6.63398C6.03934 4.98353 4.64356 3.19037 3.08594 2.29876L5.29091 11.3433H7.89026L11.7539 1.01172H9.15472Z" fill="#000"/>
<path d="M4.51871 1.01172H0.563897L0.523438 1.22069C3.60843 2.07896 5.65156 4.14779 6.491 6.63441L5.63127 1.8811C5.48973 1.22055 5.05476 1.03351 4.51871 1.01172Z" fill="#000"/>
</svg>
