<svg width="1461" height="2057" viewBox="0 0 1461 2057" fill="none" xmlns="http://www.w3.org/2000/svg">
<path d="M790.798 1048.14C817.531 1147.9 919.848 1207.11 1019.4 1180.43L1322.03 1099.34C1421.59 1072.67 1480.59 970.234 1453.86 870.481C1427.13 770.727 1324.81 711.515 1225.26 738.19L922.628 819.281C823.076 845.955 764.068 948.393 790.798 1048.14Z" stroke="#62B5E5"/>
<path d="M612.948 557.48L612.888 557.231L1230.95 391.62C1336.84 363.247 1399.67 254.18 1371.24 148.074C1342.81 41.968 1233.87 -21.0755 1127.97 7.29783L147.618 269.984C41.7277 298.357 -21.0923 407.424 7.33771 513.53L7.39777 513.779C35.8278 619.885 144.768 682.929 250.658 654.555L612.948 557.48Z" stroke="#FFA300"/>
<path d="M324.368 1696.76L363.778 1843.84C404.628 1996.27 561.018 2086.78 713.268 2045.98C865.518 2005.19 955.706 1848.61 914.861 1696.18L875.451 1549.1C834.607 1396.67 678.178 1306.04 525.928 1346.83C373.678 1387.63 283.498 1544.2 324.368 1696.76Z" stroke="#CB2C30"/>
<path d="M661.558 1169.4L704.898 1087.57C778.818 948.31 725.908 775.216 586.688 701.066C447.588 626.882 274.848 679.707 200.968 819.1L157.618 900.924C83.7077 1040.19 136.618 1213.28 275.838 1287.43C414.938 1361.62 587.678 1308.79 661.588 1169.52" stroke="#FF7276"/>
</svg>
